<?xml version="1.0" encoding="utf-8"?>
<svg xmlns="http://www.w3.org/2000/svg" xmlns:xlink="http://www.w3.org/1999/xlink" width="600" height="400" viewBox="0 0 2400 1600">
<defs>
  <clipPath id="clip630">
    <rect x="0" y="0" width="2400" height="1600"/>
  </clipPath>
</defs>
<path clip-path="url(#clip630)" d="
M0 1600 L2400 1600 L2400 0 L0 0  Z
  " fill="#ffffff" fill-rule="evenodd" fill-opacity="1"/>
<defs>
  <clipPath id="clip631">
    <rect x="480" y="0" width="1681" height="1600"/>
  </clipPath>
</defs>
<path clip-path="url(#clip630)" d="
M422.811 1486.45 L1862.02 1486.45 L1862.02 47.2441 L422.811 47.2441  Z
  " fill="#ffffff" fill-rule="evenodd" fill-opacity="1"/>
<defs>
  <clipPath id="clip632">
    <rect x="422" y="47" width="1440" height="1440"/>
  </clipPath>
</defs>
<polyline clip-path="url(#clip632)" style="stroke:#000000; stroke-linecap:butt; stroke-linejoin:round; stroke-width:2; stroke-opacity:0.1; fill:none" points="
  422.811,1486.45 422.811,47.2441 
  "/>
<polyline clip-path="url(#clip632)" style="stroke:#000000; stroke-linecap:butt; stroke-linejoin:round; stroke-width:2; stroke-opacity:0.1; fill:none" points="
  782.612,1486.45 782.612,47.2441 
  "/>
<polyline clip-path="url(#clip632)" style="stroke:#000000; stroke-linecap:butt; stroke-linejoin:round; stroke-width:2; stroke-opacity:0.1; fill:none" points="
  1142.41,1486.45 1142.41,47.2441 
  "/>
<polyline clip-path="url(#clip632)" style="stroke:#000000; stroke-linecap:butt; stroke-linejoin:round; stroke-width:2; stroke-opacity:0.1; fill:none" points="
  1502.21,1486.45 1502.21,47.2441 
  "/>
<polyline clip-path="url(#clip632)" style="stroke:#000000; stroke-linecap:butt; stroke-linejoin:round; stroke-width:2; stroke-opacity:0.1; fill:none" points="
  1862.02,1486.45 1862.02,47.2441 
  "/>
<polyline clip-path="url(#clip630)" style="stroke:#000000; stroke-linecap:butt; stroke-linejoin:round; stroke-width:4; stroke-opacity:1; fill:none" points="
  422.811,1486.45 1862.02,1486.45 
  "/>
<polyline clip-path="url(#clip630)" style="stroke:#000000; stroke-linecap:butt; stroke-linejoin:round; stroke-width:4; stroke-opacity:1; fill:none" points="
  422.811,47.2441 1862.02,47.2441 
  "/>
<polyline clip-path="url(#clip630)" style="stroke:#000000; stroke-linecap:butt; stroke-linejoin:round; stroke-width:4; stroke-opacity:1; fill:none" points="
  422.811,1486.45 422.811,1467.55 
  "/>
<polyline clip-path="url(#clip630)" style="stroke:#000000; stroke-linecap:butt; stroke-linejoin:round; stroke-width:4; stroke-opacity:1; fill:none" points="
  782.612,1486.45 782.612,1467.55 
  "/>
<polyline clip-path="url(#clip630)" style="stroke:#000000; stroke-linecap:butt; stroke-linejoin:round; stroke-width:4; stroke-opacity:1; fill:none" points="
  1142.41,1486.45 1142.41,1467.55 
  "/>
<polyline clip-path="url(#clip630)" style="stroke:#000000; stroke-linecap:butt; stroke-linejoin:round; stroke-width:4; stroke-opacity:1; fill:none" points="
  1502.21,1486.45 1502.21,1467.55 
  "/>
<polyline clip-path="url(#clip630)" style="stroke:#000000; stroke-linecap:butt; stroke-linejoin:round; stroke-width:4; stroke-opacity:1; fill:none" points="
  1862.02,1486.45 1862.02,1467.55 
  "/>
<path clip-path="url(#clip630)" d="M413.671 1535.48 Q413.968 1535.78 413.968 1536.2 Q413.968 1536.62 413.671 1536.92 Q413.375 1537.21 412.955 1537.21 L381.285 1537.21 Q380.865 1537.21 380.569 1536.92 Q380.272 1536.62 380.272 1536.2 Q380.272 1535.78 380.569 1535.48 Q380.865 1535.19 381.285 1535.19 L412.955 1535.19 Q413.375 1535.19 413.671 1535.48 Z" fill="#000000" fill-rule="evenodd" fill-opacity="1" /><path clip-path="url(#clip630)" d="M421.28 1519.97 L421.28 1518.39 Q427.357 1518.39 430.494 1515.15 Q431.359 1515.15 431.507 1515.35 Q431.655 1515.55 431.655 1516.46 L431.655 1544.85 Q431.655 1546.35 432.396 1546.82 Q433.137 1547.29 436.373 1547.29 L437.979 1547.29 L437.979 1548.85 Q436.201 1548.7 429.778 1548.7 Q423.355 1548.7 421.601 1548.85 L421.601 1547.29 L423.207 1547.29 Q426.393 1547.29 427.159 1546.85 Q427.925 1546.38 427.925 1544.85 L427.925 1518.64 Q425.282 1519.97 421.28 1519.97 Z" fill="#000000" fill-rule="evenodd" fill-opacity="1" /><path clip-path="url(#clip630)" d="M444.056 1532.67 Q444.056 1525.23 445.934 1521.18 Q448.552 1515.15 454.728 1515.15 Q456.037 1515.15 457.396 1515.52 Q458.779 1515.87 460.509 1517.23 Q462.263 1518.59 463.325 1520.81 Q465.35 1525.11 465.35 1532.67 Q465.35 1540.05 463.473 1544.08 Q460.731 1549.96 454.679 1549.96 Q452.406 1549.96 450.084 1548.8 Q447.786 1547.64 446.329 1544.85 Q444.056 1540.67 444.056 1532.67 M448.256 1532.05 Q448.256 1539.68 448.799 1542.72 Q449.417 1546.01 451.097 1547.44 Q452.801 1548.85 454.679 1548.85 Q456.704 1548.85 458.384 1547.34 Q460.089 1545.81 460.607 1542.52 Q461.176 1539.29 461.151 1532.05 Q461.151 1525.01 460.657 1522.19 Q459.99 1518.91 458.211 1517.6 Q456.457 1516.26 454.679 1516.26 Q454.012 1516.26 453.295 1516.46 Q452.604 1516.66 451.591 1517.23 Q450.578 1517.8 449.787 1519.2 Q449.022 1520.61 448.651 1522.74 Q448.256 1525.48 448.256 1532.05 Z" fill="#000000" fill-rule="evenodd" fill-opacity="1" /><path clip-path="url(#clip630)" d="M786.392 1535.48 Q786.688 1535.78 786.688 1536.2 Q786.688 1536.62 786.392 1536.92 Q786.095 1537.21 785.675 1537.21 L754.006 1537.21 Q753.586 1537.21 753.289 1536.92 Q752.993 1536.62 752.993 1536.2 Q752.993 1535.78 753.289 1535.48 Q753.586 1535.19 754.006 1535.19 L785.675 1535.19 Q786.095 1535.19 786.392 1535.48 Z" fill="#000000" fill-rule="evenodd" fill-opacity="1" /><path clip-path="url(#clip630)" d="M792.024 1540.7 Q792.024 1539.19 792.839 1538.62 Q793.655 1538.03 794.519 1538.03 Q795.68 1538.03 796.347 1538.77 Q797.039 1539.49 797.039 1540.5 Q797.039 1541.51 796.347 1542.25 Q795.68 1542.97 794.519 1542.97 Q793.951 1542.97 793.655 1542.87 Q794.322 1545.19 796.347 1546.87 Q798.398 1548.55 801.09 1548.55 Q804.475 1548.55 806.5 1545.27 Q807.711 1543.14 807.711 1538.32 Q807.711 1534.08 806.797 1531.95 Q805.389 1528.71 802.498 1528.71 Q798.398 1528.71 795.977 1532.25 Q795.68 1532.69 795.334 1532.72 Q794.84 1532.72 794.717 1532.44 Q794.618 1532.15 794.618 1531.38 L794.618 1516.41 Q794.618 1515.2 795.112 1515.2 Q795.31 1515.2 795.73 1515.35 Q798.916 1516.76 802.449 1516.78 Q806.08 1516.78 809.341 1515.3 Q809.588 1515.15 809.737 1515.15 Q810.231 1515.15 810.255 1515.72 Q810.255 1515.92 809.835 1516.51 Q809.44 1517.08 808.575 1517.85 Q807.711 1518.59 806.599 1519.3 Q805.488 1520.02 803.857 1520.51 Q802.251 1520.98 800.473 1520.98 Q798.348 1520.98 796.174 1520.32 L796.174 1530.17 Q798.793 1527.6 802.597 1527.6 Q806.649 1527.6 809.44 1530.86 Q812.232 1534.12 812.232 1538.67 Q812.232 1543.44 808.921 1546.7 Q805.636 1549.96 801.189 1549.96 Q797.138 1549.96 794.569 1547.07 Q792.024 1544.18 792.024 1540.7 Z" fill="#000000" fill-rule="evenodd" fill-opacity="1" /><path clip-path="url(#clip630)" d="M1131.77 1532.67 Q1131.77 1525.23 1133.64 1521.18 Q1136.26 1515.15 1142.44 1515.15 Q1143.75 1515.15 1145.11 1515.52 Q1146.49 1515.87 1148.22 1517.23 Q1149.97 1518.59 1151.03 1520.81 Q1153.06 1525.11 1153.06 1532.67 Q1153.06 1540.05 1151.18 1544.08 Q1148.44 1549.96 1142.39 1549.96 Q1140.12 1549.96 1137.79 1548.8 Q1135.5 1547.64 1134.04 1544.85 Q1131.77 1540.67 1131.77 1532.67 M1135.97 1532.05 Q1135.97 1539.68 1136.51 1542.72 Q1137.13 1546.01 1138.81 1547.44 Q1140.51 1548.85 1142.39 1548.85 Q1144.41 1548.85 1146.09 1547.34 Q1147.8 1545.81 1148.32 1542.52 Q1148.89 1539.29 1148.86 1532.05 Q1148.86 1525.01 1148.37 1522.19 Q1147.7 1518.91 1145.92 1517.6 Q1144.17 1516.26 1142.39 1516.26 Q1141.72 1516.26 1141.01 1516.46 Q1140.31 1516.66 1139.3 1517.23 Q1138.29 1517.8 1137.5 1519.2 Q1136.73 1520.61 1136.36 1522.74 Q1135.97 1525.48 1135.97 1532.05 Z" fill="#000000" fill-rule="evenodd" fill-opacity="1" /><path clip-path="url(#clip630)" d="M1492.11 1540.7 Q1492.11 1539.19 1492.93 1538.62 Q1493.74 1538.03 1494.61 1538.03 Q1495.77 1538.03 1496.43 1538.77 Q1497.13 1539.49 1497.13 1540.5 Q1497.13 1541.51 1496.43 1542.25 Q1495.77 1542.97 1494.61 1542.97 Q1494.04 1542.97 1493.74 1542.87 Q1494.41 1545.19 1496.43 1546.87 Q1498.48 1548.55 1501.18 1548.55 Q1504.56 1548.55 1506.59 1545.27 Q1507.8 1543.14 1507.8 1538.32 Q1507.8 1534.08 1506.88 1531.95 Q1505.47 1528.71 1502.58 1528.71 Q1498.48 1528.71 1496.06 1532.25 Q1495.77 1532.69 1495.42 1532.72 Q1494.93 1532.72 1494.8 1532.44 Q1494.7 1532.15 1494.7 1531.38 L1494.7 1516.41 Q1494.7 1515.2 1495.2 1515.2 Q1495.4 1515.2 1495.82 1515.35 Q1499 1516.76 1502.54 1516.78 Q1506.17 1516.78 1509.43 1515.3 Q1509.67 1515.15 1509.82 1515.15 Q1510.32 1515.15 1510.34 1515.72 Q1510.34 1515.92 1509.92 1516.51 Q1509.53 1517.08 1508.66 1517.85 Q1507.8 1518.59 1506.69 1519.3 Q1505.57 1520.02 1503.94 1520.51 Q1502.34 1520.98 1500.56 1520.98 Q1498.43 1520.98 1496.26 1520.32 L1496.26 1530.17 Q1498.88 1527.6 1502.68 1527.6 Q1506.73 1527.6 1509.53 1530.86 Q1512.32 1534.12 1512.32 1538.67 Q1512.32 1543.44 1509.01 1546.7 Q1505.72 1549.96 1501.28 1549.96 Q1497.22 1549.96 1494.65 1547.07 Q1492.11 1544.18 1492.11 1540.7 Z" fill="#000000" fill-rule="evenodd" fill-opacity="1" /><path clip-path="url(#clip630)" d="M1839.98 1519.97 L1839.98 1518.39 Q1846.06 1518.39 1849.19 1515.15 Q1850.06 1515.15 1850.21 1515.35 Q1850.36 1515.55 1850.36 1516.46 L1850.36 1544.85 Q1850.36 1546.35 1851.1 1546.82 Q1851.84 1547.29 1855.07 1547.29 L1856.68 1547.29 L1856.68 1548.85 Q1854.9 1548.7 1848.48 1548.7 Q1842.05 1548.7 1840.3 1548.85 L1840.3 1547.29 L1841.91 1547.29 Q1845.09 1547.29 1845.86 1546.85 Q1846.62 1546.38 1846.62 1544.85 L1846.62 1518.64 Q1843.98 1519.97 1839.98 1519.97 Z" fill="#000000" fill-rule="evenodd" fill-opacity="1" /><path clip-path="url(#clip630)" d="M1862.76 1532.67 Q1862.76 1525.23 1864.63 1521.18 Q1867.25 1515.15 1873.43 1515.15 Q1874.74 1515.15 1876.1 1515.52 Q1877.48 1515.87 1879.21 1517.23 Q1880.96 1518.59 1882.02 1520.81 Q1884.05 1525.11 1884.05 1532.67 Q1884.05 1540.05 1882.17 1544.08 Q1879.43 1549.96 1873.38 1549.96 Q1871.11 1549.96 1868.78 1548.8 Q1866.49 1547.64 1865.03 1544.85 Q1862.76 1540.67 1862.76 1532.67 M1866.96 1532.05 Q1866.96 1539.68 1867.5 1542.72 Q1868.12 1546.01 1869.8 1547.44 Q1871.5 1548.85 1873.38 1548.85 Q1875.4 1548.85 1877.08 1547.34 Q1878.79 1545.81 1879.31 1542.52 Q1879.88 1539.29 1879.85 1532.05 Q1879.85 1525.01 1879.36 1522.19 Q1878.69 1518.91 1876.91 1517.6 Q1875.16 1516.26 1873.38 1516.26 Q1872.71 1516.26 1872 1516.46 Q1871.3 1516.66 1870.29 1517.23 Q1869.28 1517.8 1868.49 1519.2 Q1867.72 1520.61 1867.35 1522.74 Q1866.96 1525.48 1866.96 1532.05 Z" fill="#000000" fill-rule="evenodd" fill-opacity="1" /><polyline clip-path="url(#clip632)" style="stroke:#000000; stroke-linecap:butt; stroke-linejoin:round; stroke-width:2; stroke-opacity:0.1; fill:none" points="
  422.811,1486.45 1862.02,1486.45 
  "/>
<polyline clip-path="url(#clip632)" style="stroke:#000000; stroke-linecap:butt; stroke-linejoin:round; stroke-width:2; stroke-opacity:0.1; fill:none" points="
  422.811,1126.65 1862.02,1126.65 
  "/>
<polyline clip-path="url(#clip632)" style="stroke:#000000; stroke-linecap:butt; stroke-linejoin:round; stroke-width:2; stroke-opacity:0.1; fill:none" points="
  422.811,766.846 1862.02,766.846 
  "/>
<polyline clip-path="url(#clip632)" style="stroke:#000000; stroke-linecap:butt; stroke-linejoin:round; stroke-width:2; stroke-opacity:0.1; fill:none" points="
  422.811,407.045 1862.02,407.045 
  "/>
<polyline clip-path="url(#clip632)" style="stroke:#000000; stroke-linecap:butt; stroke-linejoin:round; stroke-width:2; stroke-opacity:0.1; fill:none" points="
  422.811,47.2441 1862.02,47.2441 
  "/>
<polyline clip-path="url(#clip630)" style="stroke:#000000; stroke-linecap:butt; stroke-linejoin:round; stroke-width:4; stroke-opacity:1; fill:none" points="
  422.811,1486.45 422.811,47.2441 
  "/>
<polyline clip-path="url(#clip630)" style="stroke:#000000; stroke-linecap:butt; stroke-linejoin:round; stroke-width:4; stroke-opacity:1; fill:none" points="
  1862.02,1486.45 1862.02,47.2441 
  "/>
<polyline clip-path="url(#clip630)" style="stroke:#000000; stroke-linecap:butt; stroke-linejoin:round; stroke-width:4; stroke-opacity:1; fill:none" points="
  422.811,1486.45 435.283,1486.45 
  "/>
<polyline clip-path="url(#clip630)" style="stroke:#000000; stroke-linecap:butt; stroke-linejoin:round; stroke-width:4; stroke-opacity:1; fill:none" points="
  422.811,1126.65 435.283,1126.65 
  "/>
<polyline clip-path="url(#clip630)" style="stroke:#000000; stroke-linecap:butt; stroke-linejoin:round; stroke-width:4; stroke-opacity:1; fill:none" points="
  422.811,766.846 435.283,766.846 
  "/>
<polyline clip-path="url(#clip630)" style="stroke:#000000; stroke-linecap:butt; stroke-linejoin:round; stroke-width:4; stroke-opacity:1; fill:none" points="
  422.811,407.045 435.283,407.045 
  "/>
<polyline clip-path="url(#clip630)" style="stroke:#000000; stroke-linecap:butt; stroke-linejoin:round; stroke-width:4; stroke-opacity:1; fill:none" points="
  422.811,47.2441 435.283,47.2441 
  "/>
<path clip-path="url(#clip630)" d="M335.132 1490.36 Q335.428 1490.66 335.428 1491.08 Q335.428 1491.5 335.132 1491.8 Q334.835 1492.09 334.415 1492.09 L302.746 1492.09 Q302.326 1492.09 302.029 1491.8 Q301.733 1491.5 301.733 1491.08 Q301.733 1490.66 302.029 1490.36 Q302.326 1490.07 302.746 1490.07 L334.415 1490.07 Q334.835 1490.07 335.132 1490.36 Z" fill="#000000" fill-rule="evenodd" fill-opacity="1" /><path clip-path="url(#clip630)" d="M342.741 1474.85 L342.741 1473.27 Q348.818 1473.27 351.955 1470.03 Q352.819 1470.03 352.968 1470.23 Q353.116 1470.43 353.116 1471.34 L353.116 1499.73 Q353.116 1501.23 353.857 1501.7 Q354.598 1502.17 357.834 1502.17 L359.44 1502.17 L359.44 1503.73 Q357.661 1503.58 351.238 1503.58 Q344.816 1503.58 343.062 1503.73 L343.062 1502.17 L344.667 1502.17 Q347.854 1502.17 348.62 1501.73 Q349.386 1501.26 349.386 1499.73 L349.386 1473.52 Q346.742 1474.85 342.741 1474.85 Z" fill="#000000" fill-rule="evenodd" fill-opacity="1" /><path clip-path="url(#clip630)" d="M365.517 1487.55 Q365.517 1480.11 367.394 1476.06 Q370.013 1470.03 376.189 1470.03 Q377.498 1470.03 378.857 1470.4 Q380.24 1470.75 381.969 1472.11 Q383.723 1473.47 384.786 1475.69 Q386.811 1479.99 386.811 1487.55 Q386.811 1494.93 384.934 1498.96 Q382.192 1504.84 376.139 1504.84 Q373.867 1504.84 371.545 1503.68 Q369.247 1502.52 367.79 1499.73 Q365.517 1495.55 365.517 1487.55 M369.717 1486.93 Q369.717 1494.56 370.26 1497.6 Q370.878 1500.89 372.557 1502.32 Q374.262 1503.73 376.139 1503.73 Q378.165 1503.73 379.845 1502.22 Q381.549 1500.69 382.068 1497.4 Q382.636 1494.17 382.612 1486.93 Q382.612 1479.89 382.118 1477.07 Q381.451 1473.79 379.672 1472.48 Q377.918 1471.14 376.139 1471.14 Q375.472 1471.14 374.756 1471.34 Q374.064 1471.54 373.052 1472.11 Q372.039 1472.68 371.248 1474.08 Q370.482 1475.49 370.112 1477.62 Q369.717 1480.36 369.717 1486.93 Z" fill="#000000" fill-rule="evenodd" fill-opacity="1" /><path clip-path="url(#clip630)" d="M360.972 1130.56 Q361.268 1130.86 361.268 1131.28 Q361.268 1131.7 360.972 1132 Q360.675 1132.29 360.255 1132.29 L328.585 1132.29 Q328.166 1132.29 327.869 1132 Q327.573 1131.7 327.573 1131.28 Q327.573 1130.86 327.869 1130.56 Q328.166 1130.27 328.585 1130.27 L360.255 1130.27 Q360.675 1130.27 360.972 1130.56 Z" fill="#000000" fill-rule="evenodd" fill-opacity="1" /><path clip-path="url(#clip630)" d="M366.604 1135.77 Q366.604 1134.27 367.419 1133.7 Q368.234 1133.11 369.099 1133.11 Q370.26 1133.11 370.927 1133.85 Q371.619 1134.56 371.619 1135.58 Q371.619 1136.59 370.927 1137.33 Q370.26 1138.05 369.099 1138.05 Q368.531 1138.05 368.234 1137.95 Q368.901 1140.27 370.927 1141.95 Q372.977 1143.63 375.67 1143.63 Q379.054 1143.63 381.08 1140.34 Q382.291 1138.22 382.291 1133.4 Q382.291 1129.15 381.377 1127.03 Q379.968 1123.79 377.078 1123.79 Q372.977 1123.79 370.557 1127.33 Q370.26 1127.77 369.914 1127.8 Q369.42 1127.8 369.297 1127.52 Q369.198 1127.23 369.198 1126.46 L369.198 1111.49 Q369.198 1110.28 369.692 1110.28 Q369.89 1110.28 370.309 1110.43 Q373.496 1111.84 377.029 1111.86 Q380.66 1111.86 383.921 1110.38 Q384.168 1110.23 384.316 1110.23 Q384.81 1110.23 384.835 1110.8 Q384.835 1111 384.415 1111.59 Q384.02 1112.16 383.155 1112.92 Q382.291 1113.67 381.179 1114.38 Q380.067 1115.1 378.437 1115.59 Q376.831 1116.06 375.053 1116.06 Q372.928 1116.06 370.754 1115.39 L370.754 1125.25 Q373.373 1122.68 377.177 1122.68 Q381.228 1122.68 384.02 1125.94 Q386.811 1129.2 386.811 1133.75 Q386.811 1138.52 383.501 1141.78 Q380.216 1145.04 375.769 1145.04 Q371.718 1145.04 369.148 1142.15 Q366.604 1139.26 366.604 1135.77 Z" fill="#000000" fill-rule="evenodd" fill-opacity="1" /><path clip-path="url(#clip630)" d="M365.517 767.945 Q365.517 760.51 367.394 756.458 Q370.013 750.431 376.189 750.431 Q377.498 750.431 378.857 750.801 Q380.24 751.147 381.969 752.506 Q383.723 753.864 384.786 756.088 Q386.811 760.386 386.811 767.945 Q386.811 775.332 384.934 779.358 Q382.192 785.238 376.139 785.238 Q373.867 785.238 371.545 784.077 Q369.247 782.916 367.79 780.124 Q365.517 775.949 365.517 767.945 M369.717 767.328 Q369.717 774.961 370.26 778 Q370.878 781.285 372.557 782.718 Q374.262 784.126 376.139 784.126 Q378.165 784.126 379.845 782.619 Q381.549 781.087 382.068 777.802 Q382.636 774.566 382.612 767.328 Q382.612 760.287 382.118 757.471 Q381.451 754.186 379.672 752.876 Q377.918 751.542 376.139 751.542 Q375.472 751.542 374.756 751.74 Q374.064 751.938 373.052 752.506 Q372.039 753.074 371.248 754.482 Q370.482 755.89 370.112 758.015 Q369.717 760.757 369.717 767.328 Z" fill="#000000" fill-rule="evenodd" fill-opacity="1" /><path clip-path="url(#clip630)" d="M366.604 416.173 Q366.604 414.666 367.419 414.098 Q368.234 413.505 369.099 413.505 Q370.26 413.505 370.927 414.246 Q371.619 414.962 371.619 415.975 Q371.619 416.988 370.927 417.729 Q370.26 418.446 369.099 418.446 Q368.531 418.446 368.234 418.347 Q368.901 420.669 370.927 422.349 Q372.977 424.029 375.67 424.029 Q379.054 424.029 381.08 420.743 Q382.291 418.619 382.291 413.801 Q382.291 409.552 381.377 407.428 Q379.968 404.192 377.078 404.192 Q372.977 404.192 370.557 407.724 Q370.26 408.169 369.914 408.194 Q369.42 408.194 369.297 407.922 Q369.198 407.626 369.198 406.86 L369.198 391.89 Q369.198 390.679 369.692 390.679 Q369.89 390.679 370.309 390.827 Q373.496 392.235 377.029 392.26 Q380.66 392.26 383.921 390.778 Q384.168 390.63 384.316 390.63 Q384.81 390.63 384.835 391.198 Q384.835 391.395 384.415 391.988 Q384.02 392.557 383.155 393.322 Q382.291 394.063 381.179 394.78 Q380.067 395.496 378.437 395.99 Q376.831 396.46 375.053 396.46 Q372.928 396.46 370.754 395.793 L370.754 405.649 Q373.373 403.08 377.177 403.08 Q381.228 403.08 384.02 406.341 Q386.811 409.602 386.811 414.147 Q386.811 418.915 383.501 422.176 Q380.216 425.437 375.769 425.437 Q371.718 425.437 369.148 422.546 Q366.604 419.656 366.604 416.173 Z" fill="#000000" fill-rule="evenodd" fill-opacity="1" /><path clip-path="url(#clip630)" d="M342.741 35.6459 L342.741 34.0649 Q348.818 34.0649 351.955 30.8287 Q352.819 30.8287 352.968 31.0263 Q353.116 31.224 353.116 32.138 L353.116 60.5222 Q353.116 62.0291 353.857 62.4984 Q354.598 62.9678 357.834 62.9678 L359.44 62.9678 L359.44 64.5241 Q357.661 64.3759 351.238 64.3759 Q344.816 64.3759 343.062 64.5241 L343.062 62.9678 L344.667 62.9678 Q347.854 62.9678 348.62 62.5231 Q349.386 62.0538 349.386 60.5222 L349.386 34.3119 Q346.742 35.6459 342.741 35.6459 Z" fill="#000000" fill-rule="evenodd" fill-opacity="1" /><path clip-path="url(#clip630)" d="M365.517 48.3434 Q365.517 40.9077 367.394 36.8563 Q370.013 30.8287 376.189 30.8287 Q377.498 30.8287 378.857 31.1993 Q380.24 31.5451 381.969 32.9038 Q383.723 34.2625 384.786 36.4858 Q386.811 40.7842 386.811 48.3434 Q386.811 55.7297 384.934 59.7563 Q382.192 65.6357 376.139 65.6357 Q373.867 65.6357 371.545 64.4747 Q369.247 63.3136 367.79 60.5222 Q365.517 56.3473 365.517 48.3434 M369.717 47.7258 Q369.717 55.3591 370.26 58.3977 Q370.878 61.6832 372.557 63.116 Q374.262 64.5241 376.139 64.5241 Q378.165 64.5241 379.845 63.0172 Q381.549 61.4856 382.068 58.2 Q382.636 54.9639 382.612 47.7258 Q382.612 40.6854 382.118 37.8692 Q381.451 34.5836 379.672 33.2743 Q377.918 31.9404 376.139 31.9404 Q375.472 31.9404 374.756 32.138 Q374.064 32.3356 373.052 32.9038 Q372.039 33.472 371.248 34.8801 Q370.482 36.2882 370.112 38.4126 Q369.717 41.1547 369.717 47.7258 Z" fill="#000000" fill-rule="evenodd" fill-opacity="1" /><polyline clip-path="url(#clip632)" style="stroke:#d2e11b; stroke-linecap:butt; stroke-linejoin:round; stroke-width:4; stroke-opacity:1; fill:none" points="
  1125.86,788.652 1135.14,793.39 1149.68,793.39 1158.97,788.652 1164.22,783.402 
  "/>
<polyline clip-path="url(#clip632)" style="stroke:#e7e419; stroke-linecap:butt; stroke-linejoin:round; stroke-width:4; stroke-opacity:1; fill:none" points="
  1149.68,785.841 1161.41,774.115 1161.41,759.577 1149.68,747.851 1135.14,747.851 1123.42,759.577 
  "/>
<polyline clip-path="url(#clip632)" style="stroke:#d2e11b; stroke-linecap:butt; stroke-linejoin:round; stroke-width:4; stroke-opacity:1; fill:none" points="
  1125.86,745.04 1135.14,740.302 1149.68,740.302 1158.97,745.04 1164.22,750.29 1168.96,759.577 1168.96,774.115 1164.22,783.402 
  "/>
<polyline clip-path="url(#clip632)" style="stroke:#e7e419; stroke-linecap:butt; stroke-linejoin:round; stroke-width:4; stroke-opacity:1; fill:none" points="
  1135.14,785.841 1123.42,774.115 
  "/>
<polyline clip-path="url(#clip632)" style="stroke:#d2e11b; stroke-linecap:butt; stroke-linejoin:round; stroke-width:4; stroke-opacity:1; fill:none" points="
  1120.61,783.402 1115.87,774.115 1115.87,759.577 1120.61,750.29 1125.86,745.04 
  "/>
<polyline clip-path="url(#clip632)" style="stroke:#a7db33; stroke-linecap:butt; stroke-linejoin:round; stroke-width:4; stroke-opacity:1; fill:none" points="
  1120.61,734.847 1110.41,745.04 1106.07,753.91 1104.1,759.577 1104.1,774.115 1106.07,779.782 1110.41,788.652 1120.61,798.845 1129.48,803.19 1135.14,805.156 
  1149.68,805.156 1155.35,803.19 1164.22,798.845 1174.41,788.652 1178.76,779.782 1180.72,774.115 1180.72,759.577 1178.76,753.91 1174.41,745.04 1164.22,734.847 
  1155.35,730.502 1149.68,728.536 1135.14,728.536 1129.48,730.502 1120.61,734.847 
  "/>
<polyline clip-path="url(#clip632)" style="stroke:#bdde26; stroke-linecap:butt; stroke-linejoin:round; stroke-width:4; stroke-opacity:1; fill:none" points="
  1120.61,741.339 1116.91,745.04 1109.64,759.577 1109.64,774.115 1116.91,788.652 1120.61,792.353 1135.14,799.622 1149.68,799.622 1164.22,792.353 1167.92,788.652 
  1175.19,774.115 1175.19,759.577 1167.92,745.04 1164.22,741.339 1149.68,734.07 1135.14,734.07 1120.61,741.339 
  "/>
<polyline clip-path="url(#clip632)" style="stroke:#7cd24f; stroke-linecap:butt; stroke-linejoin:round; stroke-width:4; stroke-opacity:1; fill:none" points="
  1135.14,719.337 1120.61,724.127 1111.23,730.502 1106.07,735.666 1099.69,745.04 1094.9,759.577 1094.9,774.115 1099.69,788.652 1106.07,798.026 1111.23,803.19 
  1120.61,809.565 1135.14,814.355 1149.68,814.355 1164.22,809.565 1173.59,803.19 1178.76,798.026 1185.13,788.652 1189.92,774.115 1189.92,759.577 1185.13,745.04 
  1178.76,735.666 1173.59,730.502 1164.22,724.127 1149.68,719.337 1135.14,719.337 
  "/>
<polyline clip-path="url(#clip632)" style="stroke:#90d643; stroke-linecap:butt; stroke-linejoin:round; stroke-width:4; stroke-opacity:1; fill:none" points="
  1135.14,723.936 1120.61,728.918 1118.28,730.502 1106.07,742.71 1104.48,745.04 1099.5,759.577 1099.5,774.115 1104.48,788.652 1106.07,790.982 1118.28,803.19 
  1120.61,804.774 1135.14,809.756 1149.68,809.756 1164.22,804.774 1166.55,803.19 1178.76,790.982 1180.34,788.652 1185.32,774.115 1185.32,759.577 1180.34,745.04 
  1178.76,742.71 1166.55,730.502 1164.22,728.918 1149.68,723.936 1135.14,723.936 
  "/>
<polyline clip-path="url(#clip632)" style="stroke:#69cc5b; stroke-linecap:butt; stroke-linejoin:round; stroke-width:4; stroke-opacity:1; fill:none" points="
  1153.68,715.965 1164.22,719.336 1178.76,729.115 1180.14,730.502 1189.92,745.04 1193.29,755.579 1194.36,759.577 1194.36,774.115 1193.29,778.113 1189.92,788.652 
  1180.14,803.19 1178.76,804.577 1164.22,814.356 1153.68,817.727 1149.68,818.789 1135.14,818.789 1131.15,817.727 1120.61,814.356 1106.07,804.577 1104.68,803.19 
  1094.9,788.652 1091.53,778.113 1090.47,774.115 1090.47,759.577 1091.53,755.579 1094.9,745.04 1104.68,730.502 1106.07,729.115 1120.61,719.336 1131.15,715.965 
  1135.14,714.903 1149.68,714.903 1153.68,715.965 
  "/>
<polyline clip-path="url(#clip632)" style="stroke:#38b976; stroke-linecap:butt; stroke-linejoin:round; stroke-width:4; stroke-opacity:1; fill:none" points="
  1149.68,702.971 1135.14,702.971 1120.61,706.451 1106.07,713.85 1103.31,715.965 1091.53,727.738 1089.42,730.502 1082.02,745.04 1078.54,759.577 1078.54,774.115 
  1082.02,788.652 1089.42,803.19 1091.53,805.954 1103.31,817.727 1106.07,819.842 1120.61,827.241 1135.14,830.72 1149.68,830.72 1164.22,827.241 1178.76,819.842 
  1181.52,817.727 1193.29,805.954 1195.41,803.19 1202.81,788.652 1206.29,774.115 1206.29,759.577 1202.81,745.04 1195.41,730.502 1193.29,727.738 1181.52,715.965 
  1178.76,713.85 1164.22,706.451 1149.68,702.971 
  "/>
<polyline clip-path="url(#clip632)" style="stroke:#45bf6f; stroke-linecap:butt; stroke-linejoin:round; stroke-width:4; stroke-opacity:1; fill:none" points="
  1149.68,706.949 1135.14,706.949 1120.61,710.594 1110.29,715.965 1106.07,718.718 1094.29,730.502 1091.53,734.718 1086.16,745.04 1082.52,759.577 1082.52,774.115 
  1086.16,788.652 1091.53,798.974 1094.29,803.19 1106.07,814.974 1110.29,817.727 1120.61,823.098 1135.14,826.743 1149.68,826.743 1164.22,823.098 1174.54,817.727 
  1178.76,814.974 1190.54,803.19 1193.29,798.974 1198.67,788.652 1202.31,774.115 1202.31,759.577 1198.67,745.04 1193.29,734.718 1190.54,730.502 1178.76,718.718 
  1174.54,715.965 1164.22,710.594 1149.68,706.949 
  "/>
<polyline clip-path="url(#clip632)" style="stroke:#57c665; stroke-linecap:butt; stroke-linejoin:round; stroke-width:4; stroke-opacity:1; fill:none" points="
  1149.68,710.926 1135.14,710.926 1120.61,714.737 1118.25,715.965 1106.07,723.916 1099.48,730.502 1091.53,742.68 1090.3,745.04 1086.49,759.577 1086.49,774.115 
  1090.3,788.652 1091.53,791.012 1099.48,803.19 1106.07,809.776 1118.25,817.727 1120.61,818.955 1135.14,822.766 1149.68,822.766 1164.22,818.955 1166.58,817.727 
  1178.76,809.776 1185.34,803.19 1193.29,791.012 1194.52,788.652 1198.33,774.115 1198.33,759.577 1194.52,745.04 1193.29,742.68 1185.34,730.502 1178.76,723.916 
  1166.58,715.965 1164.22,714.737 1149.68,710.926 
  "/>
<polyline clip-path="url(#clip632)" style="stroke:#2cb17d; stroke-linecap:butt; stroke-linejoin:round; stroke-width:4; stroke-opacity:1; fill:none" points="
  1164.22,702.308 1160.47,701.428 1149.68,699.09 1135.14,699.09 1124.35,701.428 1120.61,702.308 1106.07,709.355 1097.43,715.965 1091.53,721.863 1084.92,730.502 
  1077.87,745.04 1076.99,748.787 1074.66,759.577 1074.66,774.115 1076.99,784.905 1077.87,788.652 1084.92,803.19 1091.53,811.829 1097.43,817.727 1106.07,824.337 
  1120.61,831.384 1124.35,832.264 1135.14,834.602 1149.68,834.602 1160.47,832.264 1164.22,831.384 1178.76,824.337 1187.4,817.727 1193.29,811.829 1199.9,803.19 
  1206.95,788.652 1207.83,784.905 1210.17,774.115 1210.17,759.577 1207.83,748.787 1206.95,745.04 1199.9,730.502 1193.29,721.863 1187.4,715.965 1178.76,709.355 
  1164.22,702.308 
  "/>
<polyline clip-path="url(#clip632)" style="stroke:#24aa82; stroke-linecap:butt; stroke-linejoin:round; stroke-width:4; stroke-opacity:1; fill:none" points="
  1193.27,715.965 1193.29,715.987 1204.4,730.502 1207.83,737.658 1210.97,745.04 1213.99,759.577 1213.99,774.115 1210.97,788.652 1207.83,796.034 1204.4,803.19 
  1193.29,817.705 1193.27,817.727 1178.76,828.832 1171.6,832.264 1164.22,835.399 1149.68,838.423 1135.14,838.423 1120.61,835.399 1113.23,832.264 1106.07,828.832 
  1091.55,817.727 1091.53,817.705 1080.43,803.19 1076.99,796.034 1073.86,788.652 1070.84,774.115 1070.84,759.577 1073.86,745.04 1076.99,737.658 1080.43,730.502 
  1091.53,715.987 1091.55,715.965 1106.07,704.859 1113.23,701.428 1120.61,698.293 1135.14,695.269 1149.68,695.269 1164.22,698.293 1171.6,701.428 1178.76,704.859 
  1193.27,715.965 
  "/>
<polyline clip-path="url(#clip632)" style="stroke:#1e9a89; stroke-linecap:butt; stroke-linejoin:round; stroke-width:4; stroke-opacity:1; fill:none" points="
  1203.44,715.965 1207.83,721.948 1213.17,730.502 1218.93,745.04 1221.63,759.577 1221.63,774.115 1218.93,788.652 1213.17,803.19 1207.83,811.743 1203.44,817.727 
  1193.29,827.87 1187.31,832.264 1178.76,837.605 1164.22,843.359 1149.68,846.065 1135.14,846.065 1120.61,843.359 1106.07,837.605 1097.52,832.264 1091.53,827.87 
  1081.39,817.727 1076.99,811.743 1071.65,803.19 1065.9,788.652 1063.19,774.115 1063.19,759.577 1065.9,745.04 1071.65,730.502 1076.99,721.948 1081.39,715.965 
  1091.53,705.822 1097.52,701.428 1106.07,696.087 1120.61,690.333 1135.14,687.627 1149.68,687.627 1164.22,690.333 1178.76,696.087 1187.31,701.428 1193.29,705.822 
  1203.44,715.965 
  "/>
<polyline clip-path="url(#clip632)" style="stroke:#1fa386; stroke-linecap:butt; stroke-linejoin:round; stroke-width:4; stroke-opacity:1; fill:none" points="
  1198.36,715.965 1207.83,728.866 1208.85,730.502 1214.95,745.04 1217.81,759.577 1217.81,774.115 1214.95,788.652 1208.85,803.19 1207.83,804.826 1198.36,817.727 
  1193.29,822.789 1180.39,832.264 1178.76,833.286 1164.22,839.379 1149.68,842.244 1135.14,842.244 1120.61,839.379 1106.07,833.286 1104.43,832.264 1091.53,822.789 
  1086.47,817.727 1076.99,804.826 1075.97,803.19 1069.88,788.652 1067.02,774.115 1067.02,759.577 1069.88,745.04 1075.97,730.502 1076.99,728.866 1086.47,715.965 
  1091.53,710.903 1104.43,701.428 1106.07,700.406 1120.61,694.313 1135.14,691.448 1149.68,691.448 1164.22,694.313 1178.76,700.406 1180.39,701.428 1193.29,710.903 
  1198.36,715.965 
  "/>
<polyline clip-path="url(#clip632)" style="stroke:#24848d; stroke-linecap:butt; stroke-linejoin:round; stroke-width:4; stroke-opacity:1; fill:none" points="
  1218.25,715.965 1222.37,723.119 1226.29,730.502 1231.23,745.04 1233.55,759.577 1233.55,774.115 1231.23,788.652 1226.29,803.19 1222.37,810.573 1218.25,817.727 
  1207.83,830.498 1206.07,832.264 1193.29,842.686 1186.14,846.802 1178.76,850.719 1164.22,855.658 1149.68,857.981 1135.14,857.981 1120.61,855.658 1106.07,850.719 
  1098.69,846.802 1091.53,842.686 1078.76,832.264 1076.99,830.498 1066.57,817.727 1062.46,810.573 1058.54,803.19 1053.6,788.652 1051.28,774.115 1051.28,759.577 
  1053.6,745.04 1058.54,730.502 1062.46,723.119 1066.57,715.965 1076.99,703.194 1078.76,701.428 1091.53,691.006 1098.69,686.89 1106.07,682.973 1120.61,678.034 
  1135.14,675.711 1149.68,675.711 1164.22,678.034 1178.76,682.973 1186.14,686.89 1193.29,691.006 1206.07,701.428 1207.83,703.194 1218.25,715.965 
  "/>
<polyline clip-path="url(#clip632)" style="stroke:#228b8d; stroke-linecap:butt; stroke-linejoin:round; stroke-width:4; stroke-opacity:1; fill:none" points="
  1213.37,715.965 1221.81,730.502 1222.37,731.993 1227.08,745.04 1229.57,759.577 1229.57,774.115 1227.08,788.652 1222.37,801.699 1221.81,803.19 1213.37,817.727 
  1207.83,824.516 1200.08,832.264 1193.29,837.805 1178.76,846.242 1177.27,846.802 1164.22,851.51 1149.68,853.999 1135.14,853.999 1120.61,851.51 1107.56,846.802 
  1106.07,846.242 1091.53,837.805 1084.74,832.264 1076.99,824.516 1071.45,817.727 1063.02,803.19 1062.46,801.699 1057.75,788.652 1055.26,774.115 1055.26,759.577 
  1057.75,745.04 1062.46,731.993 1063.02,730.502 1071.45,715.965 1076.99,709.175 1084.74,701.428 1091.53,695.887 1106.07,687.45 1107.56,686.89 1120.61,682.182 
  1135.14,679.693 1149.68,679.693 1164.22,682.182 1177.27,686.89 1178.76,687.45 1193.29,695.887 1200.08,701.428 1207.83,709.175 1213.37,715.965 
  "/>
<polyline clip-path="url(#clip632)" style="stroke:#1f938b; stroke-linecap:butt; stroke-linejoin:round; stroke-width:4; stroke-opacity:1; fill:none" points="
  1208.49,715.965 1217.49,730.502 1222.37,743.488 1222.93,745.04 1225.58,759.577 1225.58,774.115 1222.93,788.652 1222.37,790.204 1217.49,803.19 1208.49,817.727 
  1207.83,818.535 1194.1,832.264 1193.29,832.923 1178.76,841.923 1165.77,846.802 1164.22,847.362 1149.68,850.016 1135.14,850.016 1120.61,847.362 1119.05,846.802 
  1106.07,841.923 1091.53,832.923 1090.72,832.264 1076.99,818.535 1076.34,817.727 1067.34,803.19 1062.46,790.204 1061.9,788.652 1059.24,774.115 1059.24,759.577 
  1061.9,745.04 1062.46,743.488 1067.34,730.502 1076.34,715.965 1076.99,715.157 1090.72,701.428 1091.53,700.769 1106.07,691.769 1119.05,686.89 1120.61,686.33 
  1135.14,683.676 1149.68,683.676 1164.22,686.33 1165.77,686.89 1178.76,691.769 1193.29,700.769 1194.1,701.428 1207.83,715.157 1208.49,715.965 
  "/>
<polyline clip-path="url(#clip632)" style="stroke:#2e6c8e; stroke-linecap:butt; stroke-linejoin:round; stroke-width:4; stroke-opacity:1; fill:none" points="
  1233.34,715.965 1236.91,723.561 1240.13,730.502 1244.46,745.04 1246.5,759.577 1246.5,774.115 1244.46,788.652 1240.13,803.19 1236.91,810.131 1233.34,817.727 
  1223.42,832.264 1222.37,833.498 1209.07,846.802 1207.83,847.85 1193.29,857.774 1185.7,861.339 1178.76,864.558 1164.22,868.891 1149.68,870.929 1135.14,870.929 
  1120.61,868.891 1106.07,864.558 1099.13,861.339 1091.53,857.774 1076.99,847.85 1075.76,846.802 1062.46,833.498 1061.41,832.264 1051.49,817.727 1047.92,810.131 
  1044.7,803.19 1040.37,788.652 1038.33,774.115 1038.33,759.577 1040.37,745.04 1044.7,730.502 1047.92,723.561 1051.49,715.965 1061.41,701.428 1062.46,700.194 
  1075.76,686.89 1076.99,685.842 1091.53,675.918 1099.13,672.353 1106.07,669.134 1120.61,664.801 1135.14,662.763 1149.68,662.763 1164.22,664.801 1178.76,669.134 
  1185.7,672.353 1193.29,675.918 1207.83,685.842 1209.07,686.89 1222.37,700.194 1223.42,701.428 1233.34,715.965 
  "/>
<polyline clip-path="url(#clip632)" style="stroke:#2b748e; stroke-linecap:butt; stroke-linejoin:round; stroke-width:4; stroke-opacity:1; fill:none" points="
  1228.25,715.965 1235.29,730.502 1236.91,735.781 1239.83,745.04 1242.05,759.577 1242.05,774.115 1239.83,788.652 1236.91,797.911 1235.29,803.19 1228.25,817.727 
  1222.37,826.212 1217.63,832.264 1207.83,842.061 1201.78,846.802 1193.29,852.686 1178.76,859.721 1173.48,861.339 1164.22,864.26 1149.68,866.482 1135.14,866.482 
  1120.61,864.26 1111.35,861.339 1106.07,859.721 1091.53,852.686 1083.05,846.802 1076.99,842.061 1067.2,832.264 1062.46,826.212 1056.57,817.727 1049.54,803.19 
  1047.92,797.911 1045,788.652 1042.78,774.115 1042.78,759.577 1045,745.04 1047.92,735.781 1049.54,730.502 1056.57,715.965 1062.46,707.479 1067.2,701.428 
  1076.99,691.631 1083.05,686.89 1091.53,681.006 1106.07,673.971 1111.35,672.353 1120.61,669.432 1135.14,667.21 1149.68,667.21 1164.22,669.432 1173.48,672.353 
  1178.76,673.971 1193.29,681.006 1201.78,686.89 1207.83,691.631 1217.63,701.428 1222.37,707.479 1228.25,715.965 
  "/>
<polyline clip-path="url(#clip632)" style="stroke:#287b8e; stroke-linecap:butt; stroke-linejoin:round; stroke-width:4; stroke-opacity:1; fill:none" points="
  1223.17,715.965 1230.79,730.502 1235.37,745.04 1236.91,755.247 1237.6,759.577 1237.6,774.115 1236.91,778.445 1235.37,788.652 1230.79,803.19 1223.17,817.727 
  1222.37,818.877 1211.88,832.264 1207.83,836.314 1194.44,846.802 1193.29,847.599 1178.76,855.22 1164.22,859.807 1154.01,861.339 1149.68,862.036 1135.14,862.036 
  1130.81,861.339 1120.61,859.807 1106.07,855.22 1091.53,847.599 1090.38,846.802 1076.99,836.314 1072.94,832.264 1062.46,818.877 1061.66,817.727 1054.04,803.19 
  1049.45,788.652 1047.92,778.445 1047.22,774.115 1047.22,759.577 1047.92,755.247 1049.45,745.04 1054.04,730.502 1061.66,715.965 1062.46,714.815 1072.94,701.428 
  1076.99,697.378 1090.38,686.89 1091.53,686.093 1106.07,678.472 1120.61,673.885 1130.81,672.353 1135.14,671.656 1149.68,671.656 1154.01,672.353 1164.22,673.885 
  1178.76,678.472 1193.29,686.093 1194.44,686.89 1207.83,697.378 1211.88,701.428 1222.37,714.815 1223.17,715.965 
  "/>
<polyline clip-path="url(#clip632)" style="stroke:#3a538b; stroke-linecap:butt; stroke-linejoin:round; stroke-width:4; stroke-opacity:1; fill:none" points="
  1249.97,715.965 1251.44,719.718 1255.91,730.502 1259.65,745.04 1261.41,759.577 1261.41,774.115 1259.65,788.652 1255.91,803.19 1251.44,813.974 1249.97,817.727 
  1241.91,832.264 1236.91,838.997 1230.54,846.802 1222.37,854.972 1214.56,861.339 1207.83,866.34 1193.29,874.399 1189.54,875.877 1178.76,880.338 1164.22,884.079 
  1149.68,885.838 1135.14,885.838 1120.61,884.079 1106.07,880.338 1095.28,875.877 1091.53,874.399 1076.99,866.34 1070.26,861.339 1062.46,854.972 1054.29,846.802 
  1047.92,838.997 1042.92,832.264 1034.86,817.727 1033.38,813.974 1028.92,803.19 1025.18,788.652 1023.42,774.115 1023.42,759.577 1025.18,745.04 1028.92,730.502 
  1033.38,719.718 1034.86,715.965 1042.92,701.428 1047.92,694.695 1054.29,686.89 1062.46,678.72 1070.26,672.353 1076.99,667.352 1091.53,659.293 1095.28,657.815 
  1106.07,653.354 1120.61,649.613 1135.14,647.854 1149.68,647.854 1164.22,649.613 1178.76,653.354 1189.54,657.815 1193.29,659.293 1207.83,667.352 1214.56,672.353 
  1222.37,678.72 1230.54,686.89 1236.91,694.695 1241.91,701.428 1249.97,715.965 
  "/>
<polyline clip-path="url(#clip632)" style="stroke:#355c8c; stroke-linecap:butt; stroke-linejoin:round; stroke-width:4; stroke-opacity:1; fill:none" points="
  1244.29,715.965 1250.18,730.502 1251.44,735.429 1254.15,745.04 1256.13,759.577 1256.13,774.115 1254.15,788.652 1251.44,798.263 1250.18,803.19 1244.29,817.727 
  1236.91,829.902 1235.4,832.264 1223.19,846.802 1222.37,847.626 1207.83,859.829 1205.47,861.339 1193.29,868.718 1178.76,874.609 1173.83,875.877 1164.22,878.581 
  1149.68,880.56 1135.14,880.56 1120.61,878.581 1111,875.877 1106.07,874.609 1091.53,868.718 1079.36,861.339 1076.99,859.829 1062.46,847.626 1061.63,846.802 
  1049.43,832.264 1047.92,829.902 1040.54,817.727 1034.65,803.19 1033.38,798.263 1030.68,788.652 1028.7,774.115 1028.7,759.577 1030.68,745.04 1033.38,735.429 
  1034.65,730.502 1040.54,715.965 1047.92,703.79 1049.43,701.428 1061.63,686.89 1062.46,686.066 1076.99,673.863 1079.36,672.353 1091.53,664.974 1106.07,659.082 
  1111,657.815 1120.61,655.111 1135.14,653.132 1149.68,653.132 1164.22,655.111 1173.83,657.815 1178.76,659.082 1193.29,664.974 1205.47,672.353 1207.83,673.863 
  1222.37,686.066 1223.19,686.89 1235.4,701.428 1236.91,703.79 1244.29,715.965 
  "/>
<polyline clip-path="url(#clip632)" style="stroke:#31648d; stroke-linecap:butt; stroke-linejoin:round; stroke-width:4; stroke-opacity:1; fill:none" points="
  1238.61,715.965 1245.15,730.502 1249.09,745.04 1250.94,759.577 1250.94,774.115 1249.09,788.652 1245.15,803.19 1238.61,817.727 1236.91,820.53 1229.41,832.264 
  1222.37,840.545 1216.11,846.802 1207.83,853.84 1196.1,861.339 1193.29,863.038 1178.76,869.584 1164.22,873.523 1149.68,875.375 1135.14,875.375 1120.61,873.523 
  1106.07,869.584 1091.53,863.038 1088.73,861.339 1076.99,853.84 1068.71,846.802 1062.46,840.545 1055.42,832.264 1047.92,820.53 1046.22,817.727 1039.68,803.19 
  1035.74,788.652 1033.88,774.115 1033.88,759.577 1035.74,745.04 1039.68,730.502 1046.22,715.965 1047.92,713.162 1055.42,701.428 1062.46,693.146 1068.71,686.89 
  1076.99,679.852 1088.73,672.353 1091.53,670.654 1106.07,664.108 1120.61,660.169 1135.14,658.317 1149.68,658.317 1164.22,660.169 1178.76,664.108 1193.29,670.654 
  1196.1,672.353 1207.83,679.852 1216.11,686.89 1222.37,693.146 1229.41,701.428 1236.91,713.162 1238.61,715.965 
  "/>
<polyline clip-path="url(#clip632)" style="stroke:#414186; stroke-linecap:butt; stroke-linejoin:round; stroke-width:4; stroke-opacity:1; fill:none" points="
  1263.18,715.965 1265.98,724.284 1268.31,730.502 1271.84,745.04 1273.49,759.577 1273.49,774.115 1271.84,788.652 1268.31,803.19 1265.98,809.408 1263.18,817.727 
  1256,832.264 1251.44,839.141 1246.2,846.802 1236.91,857.434 1233,861.339 1222.37,870.632 1214.71,875.877 1207.83,880.434 1193.29,887.608 1184.98,890.414 
  1178.76,892.745 1164.22,896.269 1149.68,897.926 1135.14,897.926 1120.61,896.269 1106.07,892.745 1099.85,890.414 1091.53,887.608 1076.99,880.434 1070.12,875.877 
  1062.46,870.632 1051.82,861.339 1047.92,857.434 1038.63,846.802 1033.38,839.141 1028.83,832.264 1021.65,817.727 1018.85,809.408 1016.51,803.19 1012.99,788.652 
  1011.33,774.115 1011.33,759.577 1012.99,745.04 1016.51,730.502 1018.85,724.284 1021.65,715.965 1028.83,701.428 1033.38,694.551 1038.63,686.89 1047.92,676.258 
  1051.82,672.353 1062.46,663.06 1070.12,657.815 1076.99,653.258 1091.53,646.084 1099.85,643.278 1106.07,640.947 1120.61,637.423 1135.14,635.766 1149.68,635.766 
  1164.22,637.423 1178.76,640.947 1184.98,643.278 1193.29,646.084 1207.83,653.258 1214.71,657.815 1222.37,663.06 1233,672.353 1236.91,676.258 1246.2,686.89 
  1251.44,694.551 1256,701.428 1263.18,715.965 
  "/>
<polyline clip-path="url(#clip632)" style="stroke:#3d4a89; stroke-linecap:butt; stroke-linejoin:round; stroke-width:4; stroke-opacity:1; fill:none" points="
  1256.43,715.965 1261.87,730.502 1265.14,745.04 1265.98,752.793 1266.86,759.577 1266.86,774.115 1265.98,780.899 1265.14,788.652 1261.87,803.19 1256.43,817.727 
  1251.44,826.952 1248.6,832.264 1238,846.802 1236.91,848.051 1223.62,861.339 1222.37,862.431 1207.83,873.028 1202.52,875.877 1193.29,880.865 1178.76,886.304 
  1164.22,889.578 1156.47,890.414 1149.68,891.297 1135.14,891.297 1128.36,890.414 1120.61,889.578 1106.07,886.304 1091.53,880.865 1082.31,875.877 1076.99,873.028 
  1062.46,862.431 1061.21,861.339 1047.92,848.051 1046.83,846.802 1036.23,832.264 1033.38,826.952 1028.39,817.727 1022.95,803.19 1019.68,788.652 1018.85,780.899 
  1017.96,774.115 1017.96,759.577 1018.85,752.793 1019.68,745.04 1022.95,730.502 1028.39,715.965 1033.38,706.74 1036.23,701.428 1046.83,686.89 1047.92,685.641 
  1061.21,672.353 1062.46,671.261 1076.99,660.664 1082.31,657.815 1091.53,652.827 1106.07,647.388 1120.61,644.114 1128.36,643.278 1135.14,642.395 1149.68,642.395 
  1156.47,643.278 1164.22,644.114 1178.76,647.388 1193.29,652.827 1202.52,657.815 1207.83,660.664 1222.37,671.261 1223.62,672.353 1236.91,685.641 1238,686.89 
  1248.6,701.428 1251.44,706.74 1256.43,715.965 
  "/>
<polyline clip-path="url(#clip632)" style="stroke:#472c7b; stroke-linecap:butt; stroke-linejoin:round; stroke-width:4; stroke-opacity:1; fill:none" points="
  1279.4,715.965 1280.52,719.794 1284.2,730.502 1287.31,745.04 1288.78,759.577 1288.78,774.115 1287.31,788.652 1284.2,803.19 1280.52,813.898 1279.4,817.727 
  1273.39,832.264 1265.98,844.599 1264.69,846.802 1253.88,861.339 1251.44,864.075 1239.64,875.877 1236.91,878.317 1222.37,889.122 1220.17,890.414 1207.83,897.82 
  1193.29,903.828 1189.47,904.951 1178.76,908.634 1164.22,911.746 1149.68,913.209 1135.14,913.209 1120.61,911.746 1106.07,908.634 1095.36,904.951 1091.53,903.828 
  1076.99,897.82 1064.66,890.414 1062.46,889.122 1047.92,878.317 1045.18,875.877 1033.38,864.075 1030.94,861.339 1020.14,846.802 1018.85,844.599 1011.44,832.264 
  1005.43,817.727 1004.31,813.898 1000.63,803.19 997.513,788.652 996.05,774.115 996.05,759.577 997.513,745.04 1000.63,730.502 1004.31,719.794 1005.43,715.965 
  1011.44,701.428 1018.85,689.093 1020.14,686.89 1030.94,672.353 1033.38,669.617 1045.18,657.815 1047.92,655.375 1062.46,644.57 1064.66,643.278 1076.99,635.871 
  1091.53,629.864 1095.36,628.741 1106.07,625.058 1120.61,621.946 1135.14,620.483 1149.68,620.483 1164.22,621.946 1178.76,625.058 1189.47,628.741 1193.29,629.864 
  1207.83,635.871 1220.17,643.278 1222.37,644.57 1236.91,655.375 1239.64,657.815 1251.44,669.617 1253.88,672.353 1264.69,686.89 1265.98,689.093 1273.39,701.428 
  1279.4,715.965 
  "/>
<polyline clip-path="url(#clip632)" style="stroke:#443781; stroke-linecap:butt; stroke-linejoin:round; stroke-width:4; stroke-opacity:1; fill:none" points="
  1270.93,715.965 1275.81,730.502 1278.74,745.04 1280.12,759.577 1280.12,774.115 1278.74,788.652 1275.81,803.19 1270.93,817.727 1265.98,827.819 1263.94,832.264 
  1254.95,846.802 1251.44,851.303 1243.02,861.339 1236.91,867.456 1226.87,875.877 1222.37,879.387 1207.83,888.372 1203.39,890.414 1193.29,895.359 1178.76,900.239 
  1164.22,903.175 1149.68,904.556 1135.14,904.556 1120.61,903.175 1106.07,900.239 1091.53,895.359 1081.44,890.414 1076.99,888.372 1062.46,879.387 1057.96,875.877 
  1047.92,867.456 1041.8,861.339 1033.38,851.303 1029.87,846.802 1020.89,832.264 1018.85,827.819 1013.9,817.727 1009.02,803.19 1006.08,788.652 1004.7,774.115 
  1004.7,759.577 1006.08,745.04 1009.02,730.502 1013.9,715.965 1018.85,705.873 1020.89,701.428 1029.87,686.89 1033.38,682.389 1041.8,672.353 1047.92,666.236 
  1057.96,657.815 1062.46,654.305 1076.99,645.32 1081.44,643.278 1091.53,638.333 1106.07,633.453 1120.61,630.517 1135.14,629.136 1149.68,629.136 1164.22,630.517 
  1178.76,633.453 1193.29,638.333 1203.39,643.278 1207.83,645.32 1222.37,654.305 1226.87,657.815 1236.91,666.236 1243.02,672.353 1251.44,682.389 1254.95,686.89 
  1263.94,701.428 1265.98,705.873 1270.93,715.965 
  "/>
<polyline clip-path="url(#clip632)" style="stroke:#482273; stroke-linecap:butt; stroke-linejoin:round; stroke-width:4; stroke-opacity:1; fill:none" points="
  1290.25,715.965 1294.13,730.502 1295.06,736.013 1297.01,745.04 1298.54,759.577 1298.54,774.115 1297.01,788.652 1295.06,797.679 1294.13,803.19 1290.25,817.727 
  1284.28,832.264 1280.52,839.094 1276.59,846.802 1266.41,861.339 1265.98,861.868 1253.98,875.877 1251.44,878.417 1237.44,890.414 1236.91,890.842 1222.37,901.02 
  1214.66,904.951 1207.83,908.713 1193.29,914.681 1178.76,918.559 1173.25,919.489 1164.22,921.445 1149.68,922.974 1135.14,922.974 1120.61,921.445 1111.58,919.489 
  1106.07,918.559 1091.53,914.681 1076.99,908.713 1070.17,904.951 1062.46,901.02 1047.92,890.842 1047.39,890.414 1033.38,878.417 1030.84,875.877 1018.85,861.868 
  1018.42,861.339 1008.24,846.802 1004.31,839.094 1000.55,832.264 994.578,817.727 990.7,803.19 989.77,797.679 987.814,788.652 986.285,774.115 986.285,759.577 
  987.814,745.04 989.77,736.013 990.7,730.502 994.578,715.965 1000.55,701.428 1004.31,694.598 1008.24,686.89 1018.42,672.353 1018.85,671.824 1030.84,657.815 
  1033.38,655.275 1047.39,643.278 1047.92,642.85 1062.46,632.672 1070.17,628.741 1076.99,624.979 1091.53,619.011 1106.07,615.133 1111.58,614.203 1120.61,612.247 
  1135.14,610.718 1149.68,610.718 1164.22,612.247 1173.25,614.203 1178.76,615.133 1193.29,619.011 1207.83,624.979 1214.66,628.741 1222.37,632.672 1236.91,642.85 
  1237.44,643.278 1251.44,655.275 1253.98,657.815 1265.98,671.824 1266.41,672.353 1276.59,686.89 1280.52,694.598 1284.28,701.428 1290.25,715.965 
  "/>
<polyline clip-path="url(#clip632)" style="stroke:#47186a; stroke-linecap:butt; stroke-linejoin:round; stroke-width:4; stroke-opacity:1; fill:none" points="
  1303.99,715.965 1307.59,730.502 1309.59,743.852 1309.83,745.04 1311.33,759.577 1311.33,774.115 1309.83,788.652 1309.59,789.84 1307.59,803.19 1303.99,817.727 
  1298.44,832.264 1295.06,838.902 1291.51,846.802 1282.52,861.339 1280.52,864.038 1271.7,875.877 1265.98,882.186 1257.75,890.414 1251.44,896.132 1239.61,904.951 
  1236.91,906.953 1222.37,915.941 1214.47,919.489 1207.83,922.876 1193.29,928.42 1178.76,932.023 1165.41,934.026 1164.22,934.267 1149.68,935.758 1135.14,935.758 
  1120.61,934.267 1119.42,934.026 1106.07,932.023 1091.53,928.42 1076.99,922.876 1070.36,919.489 1062.46,915.941 1047.92,906.953 1045.22,904.951 1033.38,896.132 
  1027.07,890.414 1018.85,882.186 1013.13,875.877 1004.31,864.038 1002.31,861.339 993.319,846.802 989.77,838.902 986.383,832.264 980.839,817.727 977.237,803.19 
  975.233,789.84 974.993,788.652 973.501,774.115 973.501,759.577 974.993,745.04 975.233,743.852 977.237,730.502 980.839,715.965 986.383,701.428 989.77,694.79 
  993.319,686.89 1002.31,672.353 1004.31,669.654 1013.13,657.815 1018.85,651.506 1027.07,643.278 1033.38,637.56 1045.22,628.741 1047.92,626.739 1062.46,617.751 
  1070.36,614.203 1076.99,610.816 1091.53,605.272 1106.07,601.669 1119.42,599.666 1120.61,599.425 1135.14,597.934 1149.68,597.934 1164.22,599.425 1165.41,599.666 
  1178.76,601.669 1193.29,605.272 1207.83,610.816 1214.47,614.203 1222.37,617.751 1236.91,626.739 1239.61,628.741 1251.44,637.56 1257.75,643.278 1265.98,651.506 
  1271.7,657.815 1280.52,669.654 1282.52,672.353 1291.51,686.89 1295.06,694.79 1298.44,701.428 1303.99,715.965 
  "/>
<polyline clip-path="url(#clip632)" style="stroke:#460c5f; stroke-linecap:butt; stroke-linejoin:round; stroke-width:4; stroke-opacity:1; fill:none" points="
  1320.21,701.428 1324.13,715.41 1324.33,715.965 1328.38,730.502 1330.81,745.04 1331.96,759.577 1331.96,774.115 1330.81,788.652 1328.38,803.19 1324.33,817.727 
  1324.13,818.282 1320.21,832.264 1314.11,846.802 1309.59,854.855 1306.42,861.339 1296.89,875.877 1295.06,878.252 1285.74,890.414 1280.52,896.104 1271.67,904.951 
  1265.98,910.171 1253.82,919.489 1251.44,921.318 1236.91,930.851 1230.42,934.026 1222.37,938.544 1207.83,944.64 1193.85,948.564 1193.29,948.767 1178.76,952.812 
  1164.22,955.247 1149.68,956.391 1135.14,956.391 1120.61,955.247 1106.07,952.812 1091.53,948.767 1090.98,948.564 1076.99,944.64 1062.46,938.544 1054.4,934.026 
  1047.92,930.851 1033.38,921.318 1031.01,919.489 1018.85,910.171 1013.15,904.951 1004.31,896.104 999.088,890.414 989.77,878.252 987.941,875.877 978.408,861.339 
  975.233,854.855 970.716,846.802 964.619,832.264 960.696,818.282 960.493,817.727 956.447,803.19 954.013,788.652 952.868,774.115 952.868,759.577 954.013,745.04 
  956.447,730.502 960.493,715.965 960.696,715.41 964.619,701.428 970.716,686.89 975.233,678.837 978.408,672.353 987.941,657.815 989.77,655.44 999.088,643.278 
  1004.31,637.588 1013.15,628.741 1018.85,623.521 1031.01,614.203 1033.38,612.374 1047.92,602.841 1054.4,599.666 1062.46,595.148 1076.99,589.052 1090.98,585.128 
  1091.53,584.925 1106.07,580.88 1120.61,578.445 1135.14,577.301 1149.68,577.301 1164.22,578.445 1178.76,580.88 1193.29,584.925 1193.85,585.128 1207.83,589.052 
  1222.37,595.148 1230.42,599.666 1236.91,602.841 1251.44,612.374 1253.82,614.203 1265.98,623.521 1271.67,628.741 1280.52,637.588 1285.74,643.278 1295.06,655.44 
  1296.89,657.815 1306.42,672.353 1309.59,678.837 1314.11,686.89 1320.21,701.428 
  "/>
<polyline clip-path="url(#clip632)" style="stroke:#460c5f; stroke-linecap:butt; stroke-linejoin:round; stroke-width:4; stroke-opacity:1; fill:none" points="
  1241.7,672.353 1251.44,681.45 1257.9,686.89 1265.98,693.465 1277.2,701.428 1280.52,703.77 1295.06,712.859 1300.91,715.965 1309.59,720.759 1324.13,727.44 
  1332.24,730.502 1338.67,733.142 1353.21,738.07 1367.74,741.865 1382.28,744.698 1384.69,745.04 1396.82,747.048 1411.36,748.557 1425.89,749.217 1440.43,749.053 
  1454.97,748.058 1469.5,746.193 1475.61,745.04 1484.04,743.671 1498.58,740.471 1513.12,736.246 1527.65,730.803 1528.35,730.502 1542.19,724.954 1556.73,717.618 
  1559.6,715.965 1571.27,709.478 1583.28,701.428 1585.8,699.746 1600.34,688.742 1602.55,686.89 1614.88,676.112 1618.79,672.353 1629.42,661.367 1632.65,657.815 
  1643.95,643.979 1644.51,643.278 1655.07,628.741 1658.49,623.227 1664.19,614.203 1671.84,599.666 1673.03,597.038 1678.78,585.128 1684.42,570.591 1687.57,560.504 
  1689.11,556.054 1693.2,541.516 1696.25,526.979 1698.41,512.441 1699.75,497.904 1700.33,483.366 1700.19,468.829 1699.3,454.292 1697.65,439.754 1695.15,425.217 
  1691.69,410.679 1687.57,397.421 1687.21,396.142 1682.33,381.605 1676.11,367.067 1673.03,360.972 1668.99,352.53 1660.59,337.992 1658.49,334.791 1651.15,323.455 
  1643.95,313.949 1640.07,308.918 1629.42,296.683 1627.3,294.38 1614.88,281.956 1612.58,279.843 1600.34,269.191 1595.31,265.305 1585.8,258.114 1574.47,250.768 
  1571.27,248.671 1556.73,240.271 1548.29,236.23 1542.19,233.146 1527.65,226.933 1513.12,222.049 1511.84,221.693 1498.58,217.564 1484.04,214.113 1469.5,211.612 
  1454.97,209.955 1440.43,209.072 1425.89,208.926 1411.36,209.511 1396.82,210.852 1382.28,213.005 1367.74,216.061 1353.21,220.153 1348.76,221.693 1338.67,224.834 
  1324.13,230.483 1312.22,236.23 1309.59,237.423 1295.06,245.074 1286.03,250.768 1280.52,254.191 1265.98,264.749 1265.28,265.305 1251.44,276.612 1247.89,279.843 
  1236.91,290.466 1233.15,294.38 1222.37,306.709 1220.52,308.918 1209.51,323.455 1207.83,325.975 1199.78,337.992 1193.29,349.659 1191.64,352.53 1184.31,367.067 
  1178.76,380.912 1178.46,381.605 1173.01,396.142 1168.79,410.679 1165.59,425.217 1164.22,433.646 1163.07,439.754 1161.2,454.292 1160.21,468.829 1160.04,483.366 
  1160.7,497.904 1162.21,512.441 1164.22,524.565 1164.56,526.979 1167.39,541.516 1171.19,556.054 1176.12,570.591 1178.76,577.015 1181.82,585.128 1188.5,599.666 
  1193.29,608.347 1196.4,614.203 1205.49,628.741 1207.83,632.057 1215.79,643.278 1222.37,651.363 1227.81,657.815 1236.91,667.558 1241.7,672.353 
  "/>
<polyline clip-path="url(#clip632)" style="stroke:#47186a; stroke-linecap:butt; stroke-linejoin:round; stroke-width:4; stroke-opacity:1; fill:none" points="
  1274.1,643.278 1280.52,649.194 1291.04,657.815 1295.06,660.948 1309.59,670.858 1312.13,672.353 1324.13,679.409 1338.67,686.29 1340.18,686.89 1353.21,692.31 
  1367.74,697.007 1382.28,700.513 1387.53,701.428 1396.82,703.222 1411.36,704.997 1425.89,705.772 1440.43,705.579 1454.97,704.41 1469.5,702.217 1473.09,701.428 
  1484.04,699.243 1498.58,695.281 1513.12,690.053 1520.25,686.89 1527.65,683.734 1542.19,676.165 1548.37,672.353 1556.73,667.169 1569.44,657.815 1571.27,656.414 
  1585.8,643.778 1586.33,643.278 1600.31,628.741 1600.34,628.707 1612.18,614.203 1614.88,610.371 1622.23,599.666 1629.42,587.033 1630.51,585.128 1637.72,570.591 
  1643.37,556.054 1643.95,554.217 1648.25,541.516 1651.96,526.979 1654.57,512.441 1656.19,497.904 1656.9,483.366 1656.72,468.829 1655.65,454.292 1653.65,439.754 
  1650.61,425.217 1646.43,410.679 1643.95,403.909 1641.28,396.142 1635.04,381.605 1629.42,371.011 1627.35,367.067 1618.39,352.53 1614.88,347.627 1607.76,337.992 
  1600.34,329.231 1595.12,323.455 1585.8,314.142 1580.03,308.918 1571.27,301.495 1561.63,294.38 1556.73,290.871 1542.19,281.906 1538.25,279.843 1527.65,274.216 
  1513.12,267.977 1505.35,265.305 1498.58,262.83 1484.04,258.646 1469.5,255.614 1454.97,253.605 1440.43,252.535 1425.89,252.358 1411.36,253.068 1396.82,254.694 
  1382.28,257.303 1367.74,261.007 1355.04,265.305 1353.21,265.887 1338.67,271.535 1324.13,278.751 1322.23,279.843 1309.59,287.032 1298.89,294.38 1295.06,297.08 
  1280.55,308.918 1280.52,308.946 1265.98,322.93 1265.48,323.455 1252.85,337.992 1251.44,339.823 1242.09,352.53 1236.91,360.885 1233.09,367.067 1225.53,381.605 
  1222.37,389.011 1219.21,396.142 1213.98,410.679 1210.02,425.217 1207.83,436.17 1207.04,439.754 1204.85,454.292 1203.68,468.829 1203.49,483.366 1204.26,497.904 
  1206.04,512.441 1207.83,521.727 1208.75,526.979 1212.25,541.516 1216.95,556.054 1222.37,569.082 1222.97,570.591 1229.85,585.128 1236.91,597.126 1238.4,599.666 
  1248.31,614.203 1251.44,618.214 1260.07,628.741 1265.98,635.162 1274.1,643.278 
  "/>
<polyline clip-path="url(#clip632)" style="stroke:#482273; stroke-linecap:butt; stroke-linejoin:round; stroke-width:4; stroke-opacity:1; fill:none" points="
  1302.49,628.741 1309.59,634.61 1321.85,643.278 1324.13,644.828 1338.67,653.352 1348.14,657.815 1353.21,660.222 1367.74,665.82 1382.28,670 1393.81,672.353 
  1396.82,673.01 1411.36,675.049 1425.89,675.939 1440.43,675.717 1454.97,674.375 1466.71,672.353 1469.5,671.906 1484.04,668.485 1498.58,663.764 1512.5,657.815 
  1513.12,657.555 1527.65,650.185 1538.63,643.278 1542.19,640.964 1556.73,629.851 1558.02,628.741 1571.27,616.356 1573.34,614.203 1585.77,599.666 1585.8,599.615 
  1596.12,585.128 1600.34,577.966 1604.6,570.591 1611.49,556.054 1614.88,546.992 1616.98,541.516 1621.33,526.979 1624.4,512.441 1626.31,497.904 1627.14,483.366 
  1626.93,468.829 1625.68,454.292 1623.32,439.754 1619.76,425.217 1614.88,410.776 1614.85,410.679 1608.94,396.142 1601.33,381.605 1600.34,379.978 1592.27,367.067 
  1585.8,358.412 1581.14,352.53 1571.27,341.655 1567.6,337.992 1556.73,328.118 1550.85,323.455 1542.19,316.99 1529.28,308.918 1527.65,307.925 1513.12,300.316 
  1498.58,294.412 1498.48,294.38 1484.04,289.501 1469.5,285.941 1454.97,283.582 1440.43,282.325 1425.89,282.118 1411.36,282.951 1396.82,284.86 1382.28,287.925 
  1367.74,292.274 1362.27,294.38 1353.21,297.767 1338.67,304.656 1331.29,308.918 1324.13,313.135 1309.64,323.455 1309.59,323.493 1295.06,335.919 1292.9,337.992 
  1280.52,351.24 1279.41,352.53 1268.29,367.067 1265.98,370.626 1259.07,381.605 1251.7,396.142 1251.44,396.76 1245.5,410.679 1240.77,425.217 1237.35,439.754 
  1236.91,442.553 1234.88,454.292 1233.54,468.829 1233.32,483.366 1234.21,497.904 1236.25,512.441 1236.91,515.453 1239.26,526.979 1243.44,541.516 1249.04,556.054 
  1251.44,561.124 1255.91,570.591 1264.43,585.128 1265.98,587.411 1274.65,599.666 1280.52,606.774 1287.14,614.203 1295.06,622.115 1302.49,628.741 
  "/>
<polyline clip-path="url(#clip632)" style="stroke:#472c7b; stroke-linecap:butt; stroke-linejoin:round; stroke-width:4; stroke-opacity:1; fill:none" points="
  1322.91,614.203 1324.13,615.189 1338.67,625.393 1344.48,628.741 1353.21,633.583 1367.74,640.003 1377.51,643.278 1382.28,644.897 1396.82,648.5 1411.36,650.745 
  1425.89,651.726 1440.43,651.481 1454.97,650.003 1469.5,647.229 1483.26,643.278 1484.04,643.058 1498.58,637.644 1513.12,630.498 1516.09,628.741 1527.65,621.602 
  1537.55,614.203 1542.19,610.449 1553.72,599.666 1556.73,596.491 1566.45,585.128 1571.27,578.507 1576.67,570.591 1584.77,556.054 1585.8,553.769 1591.28,541.516 
  1596.19,526.979 1599.65,512.441 1600.34,507.832 1601.91,497.904 1602.92,483.366 1602.67,468.829 1601.15,454.292 1600.34,450.12 1598.43,439.754 1594.41,425.217 
  1588.87,410.679 1585.8,404.334 1581.77,396.142 1572.82,381.605 1571.27,379.448 1561.71,367.067 1556.73,361.515 1547.74,352.53 1542.19,347.548 1529.81,337.992 
  1527.65,336.439 1513.12,327.489 1504.92,323.455 1498.58,320.389 1484.04,314.846 1469.5,310.831 1459.14,308.918 1454.97,308.113 1440.43,306.587 1425.89,306.335 
  1411.36,307.347 1401.43,308.918 1396.82,309.612 1382.28,313.068 1367.74,317.974 1355.49,323.455 1353.21,324.491 1338.67,332.594 1330.75,337.992 1324.13,342.806 
  1312.77,352.53 1309.59,355.541 1298.81,367.067 1295.06,371.707 1287.66,381.605 1280.52,393.173 1278.76,396.142 1271.61,410.679 1266.2,425.217 1265.98,425.998 
  1262.03,439.754 1259.26,454.292 1257.78,468.829 1257.53,483.366 1258.51,497.904 1260.76,512.441 1264.36,526.979 1265.98,531.746 1269.26,541.516 1275.68,556.054 
  1280.52,564.775 1283.87,570.591 1294.07,585.128 1295.06,586.35 1306.78,599.666 1309.59,602.482 1322.91,614.203 
  "/>
<polyline clip-path="url(#clip632)" style="stroke:#443781; stroke-linecap:butt; stroke-linejoin:round; stroke-width:4; stroke-opacity:1; fill:none" points="
  1324.13,586.734 1322.53,585.128 1309.91,570.591 1309.59,570.161 1300.11,556.054 1295.06,546.535 1292.51,541.516 1286.77,526.979 1282.73,512.441 1280.52,499.715 
  1280.2,497.904 1279.05,483.366 1279.34,468.829 1280.52,458.848 1281.04,454.292 1284.16,439.754 1288.85,425.217 1295.06,411.279 1295.33,410.679 1303.73,396.142 
  1309.59,387.967 1314.6,381.605 1324.13,371.316 1328.64,367.067 1338.67,358.674 1347.5,352.53 1353.21,348.851 1367.74,341.272 1375.98,337.992 1382.28,335.544 
  1396.82,331.442 1411.36,328.886 1425.89,327.77 1440.43,328.048 1454.97,329.731 1469.5,332.889 1484.04,337.654 1484.83,337.992 1498.58,344.056 1513.12,352.493 
  1513.17,352.53 1527.65,363.331 1531.88,367.067 1542.19,377.378 1545.93,381.605 1556.73,396.089 1556.77,396.142 1565.2,410.679 1571.27,424.428 1571.6,425.217 
  1576.37,439.754 1579.53,454.292 1581.21,468.829 1581.49,483.366 1580.37,497.904 1577.82,512.441 1573.72,526.979 1571.27,533.275 1567.99,541.516 1560.41,556.054 
  1556.73,561.758 1550.58,570.591 1542.19,580.617 1537.94,585.128 1527.65,594.664 1521.29,599.666 1513.12,605.526 1498.58,613.926 1497.98,614.203 1484.04,620.404 
  1469.5,625.102 1454.97,628.215 1450.41,628.741 1440.43,629.923 1425.89,630.209 1411.36,629.061 1409.54,628.741 1396.82,626.528 1382.28,622.485 1367.74,616.745 
  1362.72,614.203 1353.21,609.152 1339.1,599.666 1338.67,599.351 1324.13,586.734 
  "/>
<polyline clip-path="url(#clip632)" style="stroke:#414186; stroke-linecap:butt; stroke-linejoin:round; stroke-width:4; stroke-opacity:1; fill:none" points="
  1353.15,585.128 1353.21,585.167 1367.74,594.293 1379.08,599.666 1382.28,601.095 1396.82,605.857 1411.36,608.824 1425.89,610.12 1440.43,609.797 1454.97,607.843 
  1469.5,604.177 1481.45,599.666 1484.04,598.637 1498.58,590.94 1507.15,585.128 1513.12,580.613 1524.07,570.591 1527.65,566.743 1536.35,556.054 1542.19,547.14 
  1545.56,541.516 1552.33,526.979 1556.73,513.603 1557.1,512.441 1560.08,497.904 1561.38,483.366 1561.06,468.829 1559.09,454.292 1556.73,444.86 1555.42,439.754 
  1549.88,425.217 1542.23,410.679 1542.19,410.622 1531.88,396.142 1527.65,391.271 1517.99,381.605 1513.12,377.382 1498.64,367.067 1498.58,367.03 1484.04,359.384 
  1469.5,353.844 1464.4,352.53 1454.97,350.166 1440.43,348.203 1425.89,347.879 1411.36,349.18 1396.82,352.161 1395.66,352.53 1382.28,356.93 1367.74,363.699 
  1362.12,367.067 1353.21,372.912 1342.52,381.605 1338.67,385.194 1328.65,396.142 1324.13,402.112 1318.32,410.679 1310.62,425.217 1309.59,427.806 1305.08,439.754 
  1301.42,454.292 1299.46,468.829 1299.14,483.366 1300.44,497.904 1303.4,512.441 1308.16,526.979 1309.59,530.179 1314.97,541.516 1324.09,556.054 1324.13,556.105 
  1336.4,570.591 1338.67,572.858 1353.15,585.128 
  "/>
<polyline clip-path="url(#clip632)" style="stroke:#3d4a89; stroke-linecap:butt; stroke-linejoin:round; stroke-width:4; stroke-opacity:1; fill:none" points="
  1366.84,570.591 1367.74,571.236 1382.28,579.492 1396.35,585.128 1396.82,585.302 1411.36,588.791 1425.89,590.314 1440.43,589.935 1454.97,587.638 1463.54,585.128 
  1469.5,583.257 1484.04,576.5 1493.44,570.591 1498.58,566.912 1510.64,556.054 1513.12,553.366 1522.38,541.516 1527.65,532.763 1530.78,526.979 1536.48,512.441 
  1540.04,497.904 1541.59,483.366 1541.21,468.829 1538.86,454.292 1534.47,439.754 1527.84,425.217 1527.65,424.902 1518.15,410.679 1513.12,404.717 1504.54,396.142 
  1498.58,391.107 1484.36,381.605 1484.04,381.417 1469.5,374.788 1454.97,370.395 1440.43,368.053 1425.89,367.667 1411.36,369.219 1396.82,372.775 1382.28,378.481 
  1376.5,381.605 1367.74,386.881 1355.89,396.142 1353.21,398.616 1342.35,410.679 1338.67,415.815 1332.76,425.217 1326,439.754 1324.13,445.724 1321.62,454.292 
  1319.32,468.829 1318.94,483.366 1320.47,497.904 1323.96,512.441 1324.13,512.91 1329.77,526.979 1338.02,541.516 1338.67,542.417 1349.88,556.054 1353.21,559.383 
  1366.84,570.591 
  "/>
<polyline clip-path="url(#clip632)" style="stroke:#3a538b; stroke-linecap:butt; stroke-linejoin:round; stroke-width:4; stroke-opacity:1; fill:none" points="
  1381.99,556.054 1382.28,556.244 1396.82,563.398 1411.36,567.855 1425.89,569.802 1440.43,569.317 1454.97,566.382 1469.5,560.874 1478.09,556.054 1484.04,552.129 
  1496.12,541.516 1498.58,538.793 1507.29,526.979 1513.12,515.986 1514.76,512.441 1519.06,497.904 1520.94,483.366 1520.48,468.829 1517.64,454.292 1513.12,441.887 
  1512.23,439.754 1503.37,425.217 1498.58,419.326 1489.93,410.679 1484.04,405.89 1469.5,397.026 1467.37,396.142 1454.97,391.62 1440.43,388.783 1425.89,388.315 
  1411.36,390.196 1396.82,394.504 1393.27,396.142 1382.28,401.964 1370.47,410.679 1367.74,413.137 1357.13,425.217 1353.21,431.168 1348.39,439.754 1342.88,454.292 
  1339.94,468.829 1339.46,483.366 1341.4,497.904 1345.86,512.441 1353.02,526.979 1353.21,527.265 1364.41,541.516 1367.74,544.849 1381.99,556.054 
  "/>
<polyline clip-path="url(#clip632)" style="stroke:#355c8c; stroke-linecap:butt; stroke-linejoin:round; stroke-width:4; stroke-opacity:1; fill:none" points="
  1382.28,527.038 1382.22,526.979 1371.44,512.441 1367.74,504.531 1365.21,497.904 1362.75,483.366 1363.36,468.829 1367.07,454.292 1367.74,452.851 1375.24,439.754 
  1382.28,431.431 1389.4,425.217 1396.82,420.226 1411.36,414.014 1425.89,411.302 1440.43,411.977 1454.97,416.068 1469.5,423.743 1471.43,425.217 1484.04,437.833 
  1485.52,439.754 1493.19,454.292 1497.28,468.829 1497.96,483.366 1495.24,497.904 1489.03,512.441 1484.04,519.858 1477.83,526.979 1469.5,534.016 1456.41,541.516 
  1454.97,542.188 1440.43,545.901 1425.89,546.514 1411.36,544.052 1404.73,541.516 1396.82,537.82 1382.28,527.038 
  "/>
<polyline clip-path="url(#clip632)" style="stroke:#31648d; stroke-linecap:butt; stroke-linejoin:round; stroke-width:4; stroke-opacity:1; fill:none" points="
  1417.33,512.441 1425.89,514.922 1440.43,513.869 1443.73,512.441 1454.97,504.977 1460.77,497.904 1466.04,483.366 1464.73,468.829 1456.78,454.292 1454.97,452.482 
  1440.43,444.528 1425.89,443.215 1411.36,448.489 1404.28,454.292 1396.82,465.534 1395.39,468.829 1394.34,483.366 1396.82,491.932 1399.45,497.904 1411.36,509.805 
  1417.33,512.441 
  "/>
<circle clip-path="url(#clip632)" cx="1358.29" cy="550.965" r="10" fill="#ff0000" fill-rule="evenodd" fill-opacity="1" stroke="#000000" stroke-opacity="1" stroke-width="3.2"/>
<polyline clip-path="url(#clip632)" style="stroke:#ff0000; stroke-linecap:butt; stroke-linejoin:round; stroke-width:4; stroke-opacity:1; fill:none" points="
  1358.29,550.965 1862.02,550.965 
  "/>
<polyline clip-path="url(#clip632)" style="stroke:#ff0000; stroke-linecap:butt; stroke-linejoin:round; stroke-width:4; stroke-opacity:1; fill:none" points="
  1358.29,550.965 1358.29,47.2441 
  "/>
<circle clip-path="url(#clip632)" cx="1358.29" cy="550.965" r="10" fill="#ff0000" fill-rule="evenodd" fill-opacity="1" stroke="#000000" stroke-opacity="1" stroke-width="3.2"/>
<path clip-path="url(#clip632)" d="
M1358.29 550.965 L1862.02 550.965 L1862.02 47.2441 L1358.29 47.2441 L1358.29 550.965  Z
  " fill="#ff0000" fill-rule="evenodd" fill-opacity="0.25"/>
<polyline clip-path="url(#clip632)" style="stroke:#000000; stroke-linecap:butt; stroke-linejoin:round; stroke-width:4; stroke-opacity:0.25; fill:none" points="
  1358.29,550.965 1862.02,550.965 1862.02,47.2441 1358.29,47.2441 1358.29,550.965 
  "/>
<defs>
  <clipPath id="clip633">
    <rect x="1910" y="47" width="73" height="1440"/>
  </clipPath>
</defs>
<polyline clip-path="url(#clip633)" style="stroke:#460c5f; stroke-linecap:butt; stroke-linejoin:round; stroke-width:4; stroke-opacity:1; fill:none" points="
  1910.02,1440.02 1982.02,1440.02 
  "/>
<polyline clip-path="url(#clip633)" style="stroke:#47186a; stroke-linecap:butt; stroke-linejoin:round; stroke-width:4; stroke-opacity:1; fill:none" points="
  1910.02,1393.6 1982.02,1393.6 
  "/>
<polyline clip-path="url(#clip633)" style="stroke:#482374; stroke-linecap:butt; stroke-linejoin:round; stroke-width:4; stroke-opacity:1; fill:none" points="
  1910.02,1347.17 1982.02,1347.17 
  "/>
<polyline clip-path="url(#clip633)" style="stroke:#462d7c; stroke-linecap:butt; stroke-linejoin:round; stroke-width:4; stroke-opacity:1; fill:none" points="
  1910.02,1300.74 1982.02,1300.74 
  "/>
<polyline clip-path="url(#clip633)" style="stroke:#443781; stroke-linecap:butt; stroke-linejoin:round; stroke-width:4; stroke-opacity:1; fill:none" points="
  1910.02,1254.32 1982.02,1254.32 
  "/>
<polyline clip-path="url(#clip633)" style="stroke:#414186; stroke-linecap:butt; stroke-linejoin:round; stroke-width:4; stroke-opacity:1; fill:none" points="
  1910.02,1207.89 1982.02,1207.89 
  "/>
<polyline clip-path="url(#clip633)" style="stroke:#3d4b89; stroke-linecap:butt; stroke-linejoin:round; stroke-width:4; stroke-opacity:1; fill:none" points="
  1910.02,1161.47 1982.02,1161.47 
  "/>
<polyline clip-path="url(#clip633)" style="stroke:#39548b; stroke-linecap:butt; stroke-linejoin:round; stroke-width:4; stroke-opacity:1; fill:none" points="
  1910.02,1115.04 1982.02,1115.04 
  "/>
<polyline clip-path="url(#clip633)" style="stroke:#355c8c; stroke-linecap:butt; stroke-linejoin:round; stroke-width:4; stroke-opacity:1; fill:none" points="
  1910.02,1068.61 1982.02,1068.61 
  "/>
<polyline clip-path="url(#clip633)" style="stroke:#31648d; stroke-linecap:butt; stroke-linejoin:round; stroke-width:4; stroke-opacity:1; fill:none" points="
  1910.02,1022.19 1982.02,1022.19 
  "/>
<polyline clip-path="url(#clip633)" style="stroke:#2e6c8e; stroke-linecap:butt; stroke-linejoin:round; stroke-width:4; stroke-opacity:1; fill:none" points="
  1910.02,975.763 1982.02,975.763 
  "/>
<polyline clip-path="url(#clip633)" style="stroke:#2a758e; stroke-linecap:butt; stroke-linejoin:round; stroke-width:4; stroke-opacity:1; fill:none" points="
  1910.02,929.337 1982.02,929.337 
  "/>
<polyline clip-path="url(#clip633)" style="stroke:#277c8e; stroke-linecap:butt; stroke-linejoin:round; stroke-width:4; stroke-opacity:1; fill:none" points="
  1910.02,882.911 1982.02,882.911 
  "/>
<polyline clip-path="url(#clip633)" style="stroke:#24848d; stroke-linecap:butt; stroke-linejoin:round; stroke-width:4; stroke-opacity:1; fill:none" points="
  1910.02,836.485 1982.02,836.485 
  "/>
<polyline clip-path="url(#clip633)" style="stroke:#228b8d; stroke-linecap:butt; stroke-linejoin:round; stroke-width:4; stroke-opacity:1; fill:none" points="
  1910.02,790.059 1982.02,790.059 
  "/>
<polyline clip-path="url(#clip633)" style="stroke:#1f948b; stroke-linecap:butt; stroke-linejoin:round; stroke-width:4; stroke-opacity:1; fill:none" points="
  1910.02,743.633 1982.02,743.633 
  "/>
<polyline clip-path="url(#clip633)" style="stroke:#1e9b89; stroke-linecap:butt; stroke-linejoin:round; stroke-width:4; stroke-opacity:1; fill:none" points="
  1910.02,697.207 1982.02,697.207 
  "/>
<polyline clip-path="url(#clip633)" style="stroke:#1fa386; stroke-linecap:butt; stroke-linejoin:round; stroke-width:4; stroke-opacity:1; fill:none" points="
  1910.02,650.781 1982.02,650.781 
  "/>
<polyline clip-path="url(#clip633)" style="stroke:#24aa82; stroke-linecap:butt; stroke-linejoin:round; stroke-width:4; stroke-opacity:1; fill:none" points="
  1910.02,604.355 1982.02,604.355 
  "/>
<polyline clip-path="url(#clip633)" style="stroke:#2eb27c; stroke-linecap:butt; stroke-linejoin:round; stroke-width:4; stroke-opacity:1; fill:none" points="
  1910.02,557.929 1982.02,557.929 
  "/>
<polyline clip-path="url(#clip633)" style="stroke:#39b976; stroke-linecap:butt; stroke-linejoin:round; stroke-width:4; stroke-opacity:1; fill:none" points="
  1910.02,511.503 1982.02,511.503 
  "/>
<polyline clip-path="url(#clip633)" style="stroke:#47c06e; stroke-linecap:butt; stroke-linejoin:round; stroke-width:4; stroke-opacity:1; fill:none" points="
  1910.02,465.077 1982.02,465.077 
  "/>
<polyline clip-path="url(#clip633)" style="stroke:#57c665; stroke-linecap:butt; stroke-linejoin:round; stroke-width:4; stroke-opacity:1; fill:none" points="
  1910.02,418.652 1982.02,418.652 
  "/>
<polyline clip-path="url(#clip633)" style="stroke:#69cc5b; stroke-linecap:butt; stroke-linejoin:round; stroke-width:4; stroke-opacity:1; fill:none" points="
  1910.02,372.226 1982.02,372.226 
  "/>
<polyline clip-path="url(#clip633)" style="stroke:#7ed24e; stroke-linecap:butt; stroke-linejoin:round; stroke-width:4; stroke-opacity:1; fill:none" points="
  1910.02,325.8 1982.02,325.8 
  "/>
<polyline clip-path="url(#clip633)" style="stroke:#92d741; stroke-linecap:butt; stroke-linejoin:round; stroke-width:4; stroke-opacity:1; fill:none" points="
  1910.02,279.374 1982.02,279.374 
  "/>
<polyline clip-path="url(#clip633)" style="stroke:#a7db33; stroke-linecap:butt; stroke-linejoin:round; stroke-width:4; stroke-opacity:1; fill:none" points="
  1910.02,232.948 1982.02,232.948 
  "/>
<polyline clip-path="url(#clip633)" style="stroke:#bdde26; stroke-linecap:butt; stroke-linejoin:round; stroke-width:4; stroke-opacity:1; fill:none" points="
  1910.02,186.522 1982.02,186.522 
  "/>
<polyline clip-path="url(#clip633)" style="stroke:#d4e11a; stroke-linecap:butt; stroke-linejoin:round; stroke-width:4; stroke-opacity:1; fill:none" points="
  1910.02,140.096 1982.02,140.096 
  "/>
<polyline clip-path="url(#clip633)" style="stroke:#e9e419; stroke-linecap:butt; stroke-linejoin:round; stroke-width:4; stroke-opacity:1; fill:none" points="
  1910.02,93.67 1982.02,93.67 
  "/>
<path clip-path="url(#clip630)" d="M2018.02 1255.53 Q2018.02 1248.09 2019.89 1244.04 Q2022.51 1238.02 2028.69 1238.02 Q2030 1238.02 2031.35 1238.39 Q2032.74 1238.73 2034.47 1240.09 Q2036.22 1241.45 2037.28 1243.67 Q2039.31 1247.97 2039.31 1255.53 Q2039.31 1262.92 2037.43 1266.94 Q2034.69 1272.82 2028.64 1272.82 Q2026.36 1272.82 2024.04 1271.66 Q2021.75 1270.5 2020.29 1267.71 Q2018.02 1263.53 2018.02 1255.53 M2022.21 1254.91 Q2022.21 1262.55 2022.76 1265.58 Q2023.38 1268.87 2025.06 1270.3 Q2026.76 1271.71 2028.64 1271.71 Q2030.66 1271.71 2032.34 1270.2 Q2034.05 1268.67 2034.57 1265.39 Q2035.13 1262.15 2035.11 1254.91 Q2035.11 1247.87 2034.62 1245.06 Q2033.95 1241.77 2032.17 1240.46 Q2030.42 1239.13 2028.64 1239.13 Q2027.97 1239.13 2027.25 1239.32 Q2026.56 1239.52 2025.55 1240.09 Q2024.54 1240.66 2023.75 1242.07 Q2022.98 1243.48 2022.61 1245.6 Q2022.21 1248.34 2022.21 1254.91 Z" fill="#000000" fill-rule="evenodd" fill-opacity="1" /><path clip-path="url(#clip630)" d="M2046.4 1270.9 Q2045.63 1270.08 2045.63 1269.02 Q2045.63 1267.96 2046.4 1267.19 Q2047.17 1266.4 2048.33 1266.4 Q2049.44 1266.4 2050.18 1267.14 Q2050.94 1267.86 2050.94 1269.04 Q2050.94 1270.2 2050.13 1270.97 Q2049.34 1271.71 2048.33 1271.71 Q2047.17 1271.71 2046.4 1270.9 Z" fill="#000000" fill-rule="evenodd" fill-opacity="1" /><path clip-path="url(#clip630)" d="M2057.37 1255.53 Q2057.37 1248.09 2059.24 1244.04 Q2061.86 1238.02 2068.04 1238.02 Q2069.35 1238.02 2070.71 1238.39 Q2072.09 1238.73 2073.82 1240.09 Q2075.57 1241.45 2076.64 1243.67 Q2078.66 1247.97 2078.66 1255.53 Q2078.66 1262.92 2076.78 1266.94 Q2074.04 1272.82 2067.99 1272.82 Q2065.72 1272.82 2063.4 1271.66 Q2061.1 1270.5 2059.64 1267.71 Q2057.37 1263.53 2057.37 1255.53 M2061.57 1254.91 Q2061.57 1262.55 2062.11 1265.58 Q2062.73 1268.87 2064.41 1270.3 Q2066.11 1271.71 2067.99 1271.71 Q2070.02 1271.71 2071.7 1270.2 Q2073.4 1268.67 2073.92 1265.39 Q2074.49 1262.15 2074.46 1254.91 Q2074.46 1247.87 2073.97 1245.06 Q2073.3 1241.77 2071.52 1240.46 Q2069.77 1239.13 2067.99 1239.13 Q2067.32 1239.13 2066.61 1239.32 Q2065.91 1239.52 2064.9 1240.09 Q2063.89 1240.66 2063.1 1242.07 Q2062.33 1243.48 2061.96 1245.6 Q2061.57 1248.34 2061.57 1254.91 Z" fill="#000000" fill-rule="evenodd" fill-opacity="1" /><path clip-path="url(#clip630)" d="M2083.21 1271.71 Q2083.21 1270.8 2083.28 1270.53 Q2083.38 1270.25 2083.78 1269.83 L2093.48 1259.01 Q2098.8 1253.04 2098.8 1247.82 Q2098.8 1244.44 2097.02 1242.02 Q2095.26 1239.6 2092.03 1239.6 Q2089.8 1239.6 2087.93 1240.96 Q2086.05 1242.31 2085.18 1244.73 Q2085.33 1244.69 2085.85 1244.69 Q2087.11 1244.69 2087.8 1245.48 Q2088.52 1246.27 2088.52 1247.33 Q2088.52 1248.69 2087.63 1249.35 Q2086.76 1250 2085.9 1250 Q2085.55 1250 2085.08 1249.92 Q2084.64 1249.85 2083.92 1249.16 Q2083.21 1248.44 2083.21 1247.18 Q2083.21 1243.65 2085.88 1240.83 Q2088.57 1238.02 2092.67 1238.02 Q2097.31 1238.02 2100.35 1240.78 Q2103.41 1243.52 2103.41 1247.82 Q2103.41 1249.33 2102.95 1250.71 Q2102.5 1252.07 2101.88 1253.13 Q2101.29 1254.2 2099.66 1255.9 Q2098.03 1257.61 2096.72 1258.82 Q2095.41 1260.03 2092.47 1262.6 L2087.11 1267.81 L2096.23 1267.81 Q2100.67 1267.81 2101.02 1267.41 Q2101.51 1266.7 2102.13 1262.92 L2103.41 1262.92 L2101.98 1271.71 L2083.21 1271.71 Z" fill="#000000" fill-rule="evenodd" fill-opacity="1" /><path clip-path="url(#clip630)" d="M2108.5 1263.56 Q2108.5 1262.05 2109.32 1261.48 Q2110.13 1260.89 2111 1260.89 Q2112.16 1260.89 2112.83 1261.63 Q2113.52 1262.35 2113.52 1263.36 Q2113.52 1264.37 2112.83 1265.12 Q2112.16 1265.83 2111 1265.83 Q2110.43 1265.83 2110.13 1265.73 Q2110.8 1268.05 2112.83 1269.73 Q2114.88 1271.41 2117.57 1271.41 Q2120.95 1271.41 2122.98 1268.13 Q2124.19 1266 2124.19 1261.19 Q2124.19 1256.94 2123.28 1254.81 Q2121.87 1251.58 2118.98 1251.58 Q2114.88 1251.58 2112.46 1255.11 Q2112.16 1255.56 2111.81 1255.58 Q2111.32 1255.58 2111.2 1255.31 Q2111.1 1255.01 2111.1 1254.25 L2111.1 1239.28 Q2111.1 1238.07 2111.59 1238.07 Q2111.79 1238.07 2112.21 1238.21 Q2115.4 1239.62 2118.93 1239.65 Q2122.56 1239.65 2125.82 1238.16 Q2126.07 1238.02 2126.22 1238.02 Q2126.71 1238.02 2126.73 1238.58 Q2126.73 1238.78 2126.31 1239.37 Q2125.92 1239.94 2125.05 1240.71 Q2124.19 1241.45 2123.08 1242.17 Q2121.97 1242.88 2120.34 1243.38 Q2118.73 1243.85 2116.95 1243.85 Q2114.83 1243.85 2112.65 1243.18 L2112.65 1253.04 Q2115.27 1250.47 2119.08 1250.47 Q2123.13 1250.47 2125.92 1253.73 Q2128.71 1256.99 2128.71 1261.53 Q2128.71 1266.3 2125.4 1269.56 Q2122.12 1272.82 2117.67 1272.82 Q2113.62 1272.82 2111.05 1269.93 Q2108.5 1267.04 2108.5 1263.56 Z" fill="#000000" fill-rule="evenodd" fill-opacity="1" /><path clip-path="url(#clip630)" d="M2018.02 1027.14 Q2018.02 1019.71 2019.89 1015.66 Q2022.51 1009.63 2028.69 1009.63 Q2030 1009.63 2031.35 1010 Q2032.74 1010.34 2034.47 1011.7 Q2036.22 1013.06 2037.28 1015.28 Q2039.31 1019.58 2039.31 1027.14 Q2039.31 1034.53 2037.43 1038.56 Q2034.69 1044.43 2028.64 1044.43 Q2026.36 1044.43 2024.04 1043.27 Q2021.75 1042.11 2020.29 1039.32 Q2018.02 1035.15 2018.02 1027.14 M2022.21 1026.52 Q2022.21 1034.16 2022.76 1037.2 Q2023.38 1040.48 2025.06 1041.91 Q2026.76 1043.32 2028.64 1043.32 Q2030.66 1043.32 2032.34 1041.82 Q2034.05 1040.28 2034.57 1037 Q2035.13 1033.76 2035.11 1026.52 Q2035.11 1019.48 2034.62 1016.67 Q2033.95 1013.38 2032.17 1012.07 Q2030.42 1010.74 2028.64 1010.74 Q2027.97 1010.74 2027.25 1010.94 Q2026.56 1011.13 2025.55 1011.7 Q2024.54 1012.27 2023.75 1013.68 Q2022.98 1015.09 2022.61 1017.21 Q2022.21 1019.95 2022.21 1026.52 Z" fill="#000000" fill-rule="evenodd" fill-opacity="1" /><path clip-path="url(#clip630)" d="M2046.4 1042.51 Q2045.63 1041.69 2045.63 1040.63 Q2045.63 1039.57 2046.4 1038.8 Q2047.17 1038.01 2048.33 1038.01 Q2049.44 1038.01 2050.18 1038.75 Q2050.94 1039.47 2050.94 1040.66 Q2050.94 1041.82 2050.13 1042.58 Q2049.34 1043.32 2048.33 1043.32 Q2047.17 1043.32 2046.4 1042.51 Z" fill="#000000" fill-rule="evenodd" fill-opacity="1" /><path clip-path="url(#clip630)" d="M2057.37 1027.14 Q2057.37 1019.71 2059.24 1015.66 Q2061.86 1009.63 2068.04 1009.63 Q2069.35 1009.63 2070.71 1010 Q2072.09 1010.34 2073.82 1011.7 Q2075.57 1013.06 2076.64 1015.28 Q2078.66 1019.58 2078.66 1027.14 Q2078.66 1034.53 2076.78 1038.56 Q2074.04 1044.43 2067.99 1044.43 Q2065.72 1044.43 2063.4 1043.27 Q2061.1 1042.11 2059.64 1039.32 Q2057.37 1035.15 2057.37 1027.14 M2061.57 1026.52 Q2061.57 1034.16 2062.11 1037.2 Q2062.73 1040.48 2064.41 1041.91 Q2066.11 1043.32 2067.99 1043.32 Q2070.02 1043.32 2071.7 1041.82 Q2073.4 1040.28 2073.92 1037 Q2074.49 1033.76 2074.46 1026.52 Q2074.46 1019.48 2073.97 1016.67 Q2073.3 1013.38 2071.52 1012.07 Q2069.77 1010.74 2067.99 1010.74 Q2067.32 1010.74 2066.61 1010.94 Q2065.91 1011.13 2064.9 1011.7 Q2063.89 1012.27 2063.1 1013.68 Q2062.33 1015.09 2061.96 1017.21 Q2061.57 1019.95 2061.57 1026.52 Z" fill="#000000" fill-rule="evenodd" fill-opacity="1" /><path clip-path="url(#clip630)" d="M2083.21 1035.17 Q2083.21 1033.66 2084.02 1033.1 Q2084.84 1032.5 2085.7 1032.5 Q2086.86 1032.5 2087.53 1033.24 Q2088.22 1033.96 2088.22 1034.97 Q2088.22 1035.99 2087.53 1036.73 Q2086.86 1037.44 2085.7 1037.44 Q2085.13 1037.44 2084.84 1037.34 Q2085.5 1039.67 2087.53 1041.35 Q2089.58 1043.03 2092.27 1043.03 Q2095.66 1043.03 2097.68 1039.74 Q2098.89 1037.62 2098.89 1032.8 Q2098.89 1028.55 2097.98 1026.43 Q2096.57 1023.19 2093.68 1023.19 Q2089.58 1023.19 2087.16 1026.72 Q2086.86 1027.17 2086.52 1027.19 Q2086.02 1027.19 2085.9 1026.92 Q2085.8 1026.62 2085.8 1025.86 L2085.8 1010.89 Q2085.8 1009.68 2086.3 1009.68 Q2086.49 1009.68 2086.91 1009.83 Q2090.1 1011.23 2093.63 1011.26 Q2097.26 1011.26 2100.52 1009.78 Q2100.77 1009.63 2100.92 1009.63 Q2101.41 1009.63 2101.44 1010.2 Q2101.44 1010.39 2101.02 1010.99 Q2100.62 1011.55 2099.76 1012.32 Q2098.89 1013.06 2097.78 1013.78 Q2096.67 1014.49 2095.04 1014.99 Q2093.43 1015.46 2091.66 1015.46 Q2089.53 1015.46 2087.36 1014.79 L2087.36 1024.65 Q2089.98 1022.08 2093.78 1022.08 Q2097.83 1022.08 2100.62 1025.34 Q2103.41 1028.6 2103.41 1033.15 Q2103.41 1037.91 2100.1 1041.17 Q2096.82 1044.43 2092.37 1044.43 Q2088.32 1044.43 2085.75 1041.54 Q2083.21 1038.65 2083.21 1035.17 Z" fill="#000000" fill-rule="evenodd" fill-opacity="1" /><path clip-path="url(#clip630)" d="M2107.96 1027.14 Q2107.96 1019.71 2109.84 1015.66 Q2112.46 1009.63 2118.63 1009.63 Q2119.94 1009.63 2121.3 1010 Q2122.68 1010.34 2124.41 1011.7 Q2126.17 1013.06 2127.23 1015.28 Q2129.25 1019.58 2129.25 1027.14 Q2129.25 1034.53 2127.38 1038.56 Q2124.63 1044.43 2118.58 1044.43 Q2116.31 1044.43 2113.99 1043.27 Q2111.69 1042.11 2110.23 1039.32 Q2107.96 1035.15 2107.96 1027.14 M2112.16 1026.52 Q2112.16 1034.16 2112.7 1037.2 Q2113.32 1040.48 2115 1041.91 Q2116.71 1043.32 2118.58 1043.32 Q2120.61 1043.32 2122.29 1041.82 Q2123.99 1040.28 2124.51 1037 Q2125.08 1033.76 2125.05 1026.52 Q2125.05 1019.48 2124.56 1016.67 Q2123.89 1013.38 2122.12 1012.07 Q2120.36 1010.74 2118.58 1010.74 Q2117.92 1010.74 2117.2 1010.94 Q2116.51 1011.13 2115.49 1011.7 Q2114.48 1012.27 2113.69 1013.68 Q2112.93 1015.09 2112.55 1017.21 Q2112.16 1019.95 2112.16 1026.52 Z" fill="#000000" fill-rule="evenodd" fill-opacity="1" /><path clip-path="url(#clip630)" d="M2018.02 798.754 Q2018.02 791.319 2019.89 787.267 Q2022.51 781.24 2028.69 781.24 Q2030 781.24 2031.35 781.61 Q2032.74 781.956 2034.47 783.315 Q2036.22 784.673 2037.28 786.897 Q2039.31 791.195 2039.31 798.754 Q2039.31 806.141 2037.43 810.167 Q2034.69 816.047 2028.64 816.047 Q2026.36 816.047 2024.04 814.886 Q2021.75 813.725 2020.29 810.933 Q2018.02 806.758 2018.02 798.754 M2022.21 798.137 Q2022.21 805.77 2022.76 808.809 Q2023.38 812.094 2025.06 813.527 Q2026.76 814.935 2028.64 814.935 Q2030.66 814.935 2032.34 813.428 Q2034.05 811.897 2034.57 808.611 Q2035.13 805.375 2035.11 798.137 Q2035.11 791.096 2034.62 788.28 Q2033.95 784.995 2032.17 783.685 Q2030.42 782.351 2028.64 782.351 Q2027.97 782.351 2027.25 782.549 Q2026.56 782.747 2025.55 783.315 Q2024.54 783.883 2023.75 785.291 Q2022.98 786.699 2022.61 788.824 Q2022.21 791.566 2022.21 798.137 Z" fill="#000000" fill-rule="evenodd" fill-opacity="1" /><path clip-path="url(#clip630)" d="M2046.4 814.12 Q2045.63 813.305 2045.63 812.242 Q2045.63 811.18 2046.4 810.414 Q2047.17 809.624 2048.33 809.624 Q2049.44 809.624 2050.18 810.365 Q2050.94 811.081 2050.94 812.267 Q2050.94 813.428 2050.13 814.194 Q2049.34 814.935 2048.33 814.935 Q2047.17 814.935 2046.4 814.12 Z" fill="#000000" fill-rule="evenodd" fill-opacity="1" /><path clip-path="url(#clip630)" d="M2057.37 798.754 Q2057.37 791.319 2059.24 787.267 Q2061.86 781.24 2068.04 781.24 Q2069.35 781.24 2070.71 781.61 Q2072.09 781.956 2073.82 783.315 Q2075.57 784.673 2076.64 786.897 Q2078.66 791.195 2078.66 798.754 Q2078.66 806.141 2076.78 810.167 Q2074.04 816.047 2067.99 816.047 Q2065.72 816.047 2063.4 814.886 Q2061.1 813.725 2059.64 810.933 Q2057.37 806.758 2057.37 798.754 M2061.57 798.137 Q2061.57 805.77 2062.11 808.809 Q2062.73 812.094 2064.41 813.527 Q2066.11 814.935 2067.99 814.935 Q2070.02 814.935 2071.7 813.428 Q2073.4 811.897 2073.92 808.611 Q2074.49 805.375 2074.46 798.137 Q2074.46 791.096 2073.97 788.28 Q2073.3 784.995 2071.52 783.685 Q2069.77 782.351 2067.99 782.351 Q2067.32 782.351 2066.61 782.549 Q2065.91 782.747 2064.9 783.315 Q2063.89 783.883 2063.1 785.291 Q2062.33 786.699 2061.96 788.824 Q2061.57 791.566 2061.57 798.137 Z" fill="#000000" fill-rule="evenodd" fill-opacity="1" /><path clip-path="url(#clip630)" d="M2083.53 791.146 L2085.18 780.746 L2086.44 780.746 Q2086.59 781.363 2086.84 781.635 Q2087.11 781.907 2088.54 782.129 Q2090 782.351 2092.94 782.351 L2105.22 782.351 Q2105.22 783.512 2104.77 784.13 L2097.93 793.74 Q2095.76 796.778 2094.79 802.386 Q2094.22 806.141 2094.25 810.686 L2094.25 813.255 Q2094.25 816.047 2091.9 816.047 Q2089.58 816.047 2089.58 813.255 Q2089.58 803.596 2095.81 794.234 Q2096.47 793.27 2098.92 789.836 Q2101.39 786.403 2101.49 786.254 L2091.01 786.254 Q2086.42 786.254 2086.05 786.551 Q2085.55 786.996 2084.79 791.146 L2083.53 791.146 Z" fill="#000000" fill-rule="evenodd" fill-opacity="1" /><path clip-path="url(#clip630)" d="M2108.5 806.783 Q2108.5 805.276 2109.32 804.708 Q2110.13 804.115 2111 804.115 Q2112.16 804.115 2112.83 804.856 Q2113.52 805.572 2113.52 806.585 Q2113.52 807.598 2112.83 808.339 Q2112.16 809.056 2111 809.056 Q2110.43 809.056 2110.13 808.957 Q2110.8 811.279 2112.83 812.959 Q2114.88 814.639 2117.57 814.639 Q2120.95 814.639 2122.98 811.353 Q2124.19 809.229 2124.19 804.411 Q2124.19 800.162 2123.28 798.038 Q2121.87 794.802 2118.98 794.802 Q2114.88 794.802 2112.46 798.334 Q2112.16 798.779 2111.81 798.804 Q2111.32 798.804 2111.2 798.532 Q2111.1 798.236 2111.1 797.47 L2111.1 782.5 Q2111.1 781.289 2111.59 781.289 Q2111.79 781.289 2112.21 781.437 Q2115.4 782.845 2118.93 782.87 Q2122.56 782.87 2125.82 781.388 Q2126.07 781.24 2126.22 781.24 Q2126.71 781.24 2126.73 781.808 Q2126.73 782.005 2126.31 782.598 Q2125.92 783.167 2125.05 783.932 Q2124.19 784.673 2123.08 785.39 Q2121.97 786.106 2120.34 786.6 Q2118.73 787.07 2116.95 787.07 Q2114.83 787.07 2112.65 786.403 L2112.65 796.259 Q2115.27 793.69 2119.08 793.69 Q2123.13 793.69 2125.92 796.951 Q2128.71 800.212 2128.71 804.757 Q2128.71 809.525 2125.4 812.786 Q2122.12 816.047 2117.67 816.047 Q2113.62 816.047 2111.05 813.156 Q2108.5 810.266 2108.5 806.783 Z" fill="#000000" fill-rule="evenodd" fill-opacity="1" /><path clip-path="url(#clip630)" d="M2018.02 570.366 Q2018.02 562.931 2019.89 558.879 Q2022.51 552.852 2028.69 552.852 Q2030 552.852 2031.35 553.222 Q2032.74 553.568 2034.47 554.927 Q2036.22 556.285 2037.28 558.509 Q2039.31 562.807 2039.31 570.366 Q2039.31 577.753 2037.43 581.779 Q2034.69 587.659 2028.64 587.659 Q2026.36 587.659 2024.04 586.498 Q2021.75 585.337 2020.29 582.545 Q2018.02 578.37 2018.02 570.366 M2022.21 569.749 Q2022.21 577.382 2022.76 580.421 Q2023.38 583.706 2025.06 585.139 Q2026.76 586.547 2028.64 586.547 Q2030.66 586.547 2032.34 585.04 Q2034.05 583.509 2034.57 580.223 Q2035.13 576.987 2035.11 569.749 Q2035.11 562.708 2034.62 559.892 Q2033.95 556.607 2032.17 555.297 Q2030.42 553.963 2028.64 553.963 Q2027.97 553.963 2027.25 554.161 Q2026.56 554.359 2025.55 554.927 Q2024.54 555.495 2023.75 556.903 Q2022.98 558.311 2022.61 560.436 Q2022.21 563.178 2022.21 569.749 Z" fill="#000000" fill-rule="evenodd" fill-opacity="1" /><path clip-path="url(#clip630)" d="M2046.4 585.732 Q2045.63 584.917 2045.63 583.854 Q2045.63 582.792 2046.4 582.026 Q2047.17 581.236 2048.33 581.236 Q2049.44 581.236 2050.18 581.977 Q2050.94 582.693 2050.94 583.879 Q2050.94 585.04 2050.13 585.806 Q2049.34 586.547 2048.33 586.547 Q2047.17 586.547 2046.4 585.732 Z" fill="#000000" fill-rule="evenodd" fill-opacity="1" /><path clip-path="url(#clip630)" d="M2059.89 557.669 L2059.89 556.088 Q2065.96 556.088 2069.1 552.852 Q2069.97 552.852 2070.11 553.049 Q2070.26 553.247 2070.26 554.161 L2070.26 582.545 Q2070.26 584.052 2071 584.521 Q2071.74 584.991 2074.98 584.991 L2076.59 584.991 L2076.59 586.547 Q2074.81 586.399 2068.39 586.399 Q2061.96 586.399 2060.21 586.547 L2060.21 584.991 L2061.81 584.991 Q2065 584.991 2065.77 584.546 Q2066.53 584.077 2066.53 582.545 L2066.53 556.335 Q2063.89 557.669 2059.89 557.669 Z" fill="#000000" fill-rule="evenodd" fill-opacity="1" /><path clip-path="url(#clip630)" d="M2082.66 570.366 Q2082.66 562.931 2084.54 558.879 Q2087.16 552.852 2093.34 552.852 Q2094.64 552.852 2096 553.222 Q2097.39 553.568 2099.12 554.927 Q2100.87 556.285 2101.93 558.509 Q2103.96 562.807 2103.96 570.366 Q2103.96 577.753 2102.08 581.779 Q2099.34 587.659 2093.29 587.659 Q2091.01 587.659 2088.69 586.498 Q2086.39 585.337 2084.94 582.545 Q2082.66 578.37 2082.66 570.366 M2086.86 569.749 Q2086.86 577.382 2087.41 580.421 Q2088.02 583.706 2089.7 585.139 Q2091.41 586.547 2093.29 586.547 Q2095.31 586.547 2096.99 585.04 Q2098.7 583.509 2099.22 580.223 Q2099.78 576.987 2099.76 569.749 Q2099.76 562.708 2099.26 559.892 Q2098.6 556.607 2096.82 555.297 Q2095.06 553.963 2093.29 553.963 Q2092.62 553.963 2091.9 554.161 Q2091.21 554.359 2090.2 554.927 Q2089.19 555.495 2088.39 556.903 Q2087.63 558.311 2087.26 560.436 Q2086.86 563.178 2086.86 569.749 Z" fill="#000000" fill-rule="evenodd" fill-opacity="1" /><path clip-path="url(#clip630)" d="M2107.96 570.366 Q2107.96 562.931 2109.84 558.879 Q2112.46 552.852 2118.63 552.852 Q2119.94 552.852 2121.3 553.222 Q2122.68 553.568 2124.41 554.927 Q2126.17 556.285 2127.23 558.509 Q2129.25 562.807 2129.25 570.366 Q2129.25 577.753 2127.38 581.779 Q2124.63 587.659 2118.58 587.659 Q2116.31 587.659 2113.99 586.498 Q2111.69 585.337 2110.23 582.545 Q2107.96 578.37 2107.96 570.366 M2112.16 569.749 Q2112.16 577.382 2112.7 580.421 Q2113.32 583.706 2115 585.139 Q2116.71 586.547 2118.58 586.547 Q2120.61 586.547 2122.29 585.04 Q2123.99 583.509 2124.51 580.223 Q2125.08 576.987 2125.05 569.749 Q2125.05 562.708 2124.56 559.892 Q2123.89 556.607 2122.12 555.297 Q2120.36 553.963 2118.58 553.963 Q2117.92 553.963 2117.2 554.161 Q2116.51 554.359 2115.49 554.927 Q2114.48 555.495 2113.69 556.903 Q2112.93 558.311 2112.55 560.436 Q2112.16 563.178 2112.16 569.749 Z" fill="#000000" fill-rule="evenodd" fill-opacity="1" /><path clip-path="url(#clip630)" d="M2018.02 341.978 Q2018.02 334.543 2019.89 330.491 Q2022.51 324.464 2028.69 324.464 Q2030 324.464 2031.35 324.834 Q2032.74 325.18 2034.47 326.539 Q2036.22 327.897 2037.28 330.121 Q2039.31 334.419 2039.31 341.978 Q2039.31 349.365 2037.43 353.391 Q2034.69 359.271 2028.64 359.271 Q2026.36 359.271 2024.04 358.11 Q2021.75 356.949 2020.29 354.157 Q2018.02 349.982 2018.02 341.978 M2022.21 341.361 Q2022.21 348.994 2022.76 352.033 Q2023.38 355.318 2025.06 356.751 Q2026.76 358.159 2028.64 358.159 Q2030.66 358.159 2032.34 356.652 Q2034.05 355.121 2034.57 351.835 Q2035.13 348.599 2035.11 341.361 Q2035.11 334.32 2034.62 331.504 Q2033.95 328.219 2032.17 326.909 Q2030.42 325.575 2028.64 325.575 Q2027.97 325.575 2027.25 325.773 Q2026.56 325.971 2025.55 326.539 Q2024.54 327.107 2023.75 328.515 Q2022.98 329.923 2022.61 332.048 Q2022.21 334.79 2022.21 341.361 Z" fill="#000000" fill-rule="evenodd" fill-opacity="1" /><path clip-path="url(#clip630)" d="M2046.4 357.344 Q2045.63 356.529 2045.63 355.466 Q2045.63 354.404 2046.4 353.638 Q2047.17 352.848 2048.33 352.848 Q2049.44 352.848 2050.18 353.589 Q2050.94 354.305 2050.94 355.491 Q2050.94 356.652 2050.13 357.418 Q2049.34 358.159 2048.33 358.159 Q2047.17 358.159 2046.4 357.344 Z" fill="#000000" fill-rule="evenodd" fill-opacity="1" /><path clip-path="url(#clip630)" d="M2059.89 329.281 L2059.89 327.7 Q2065.96 327.7 2069.1 324.464 Q2069.97 324.464 2070.11 324.661 Q2070.26 324.859 2070.26 325.773 L2070.26 354.157 Q2070.26 355.664 2071 356.133 Q2071.74 356.603 2074.98 356.603 L2076.59 356.603 L2076.59 358.159 Q2074.81 358.011 2068.39 358.011 Q2061.96 358.011 2060.21 358.159 L2060.21 356.603 L2061.81 356.603 Q2065 356.603 2065.77 356.158 Q2066.53 355.689 2066.53 354.157 L2066.53 327.947 Q2063.89 329.281 2059.89 329.281 Z" fill="#000000" fill-rule="evenodd" fill-opacity="1" /><path clip-path="url(#clip630)" d="M2083.21 358.159 Q2083.21 357.245 2083.28 356.973 Q2083.38 356.702 2083.78 356.282 L2093.48 345.462 Q2098.8 339.483 2098.8 334.271 Q2098.8 330.887 2097.02 328.466 Q2095.26 326.045 2092.03 326.045 Q2089.8 326.045 2087.93 327.403 Q2086.05 328.762 2085.18 331.183 Q2085.33 331.134 2085.85 331.134 Q2087.11 331.134 2087.8 331.924 Q2088.52 332.715 2088.52 333.777 Q2088.52 335.136 2087.63 335.803 Q2086.76 336.445 2085.9 336.445 Q2085.55 336.445 2085.08 336.371 Q2084.64 336.297 2083.92 335.605 Q2083.21 334.888 2083.21 333.629 Q2083.21 330.096 2085.88 327.28 Q2088.57 324.464 2092.67 324.464 Q2097.31 324.464 2100.35 327.23 Q2103.41 329.973 2103.41 334.271 Q2103.41 335.778 2102.95 337.161 Q2102.5 338.52 2101.88 339.582 Q2101.29 340.644 2099.66 342.349 Q2098.03 344.053 2096.72 345.264 Q2095.41 346.474 2092.47 349.044 L2087.11 354.256 L2096.23 354.256 Q2100.67 354.256 2101.02 353.861 Q2101.51 353.144 2102.13 349.365 L2103.41 349.365 L2101.98 358.159 L2083.21 358.159 Z" fill="#000000" fill-rule="evenodd" fill-opacity="1" /><path clip-path="url(#clip630)" d="M2108.5 350.007 Q2108.5 348.5 2109.32 347.932 Q2110.13 347.339 2111 347.339 Q2112.16 347.339 2112.83 348.08 Q2113.52 348.796 2113.52 349.809 Q2113.52 350.822 2112.83 351.563 Q2112.16 352.28 2111 352.28 Q2110.43 352.28 2110.13 352.181 Q2110.8 354.503 2112.83 356.183 Q2114.88 357.863 2117.57 357.863 Q2120.95 357.863 2122.98 354.577 Q2124.19 352.453 2124.19 347.635 Q2124.19 343.386 2123.28 341.262 Q2121.87 338.026 2118.98 338.026 Q2114.88 338.026 2112.46 341.558 Q2112.16 342.003 2111.81 342.028 Q2111.32 342.028 2111.2 341.756 Q2111.1 341.46 2111.1 340.694 L2111.1 325.724 Q2111.1 324.513 2111.59 324.513 Q2111.79 324.513 2112.21 324.661 Q2115.4 326.069 2118.93 326.094 Q2122.56 326.094 2125.82 324.612 Q2126.07 324.464 2126.22 324.464 Q2126.71 324.464 2126.73 325.032 Q2126.73 325.229 2126.31 325.822 Q2125.92 326.391 2125.05 327.156 Q2124.19 327.897 2123.08 328.614 Q2121.97 329.33 2120.34 329.824 Q2118.73 330.294 2116.95 330.294 Q2114.83 330.294 2112.65 329.627 L2112.65 339.483 Q2115.27 336.914 2119.08 336.914 Q2123.13 336.914 2125.92 340.175 Q2128.71 343.436 2128.71 347.981 Q2128.71 352.749 2125.4 356.01 Q2122.12 359.271 2117.67 359.271 Q2113.62 359.271 2111.05 356.38 Q2108.5 353.49 2108.5 350.007 Z" fill="#000000" fill-rule="evenodd" fill-opacity="1" /><path clip-path="url(#clip630)" d="M2018.02 113.59 Q2018.02 106.155 2019.89 102.103 Q2022.51 96.0757 2028.69 96.0757 Q2030 96.0757 2031.35 96.4462 Q2032.74 96.7921 2034.47 98.1507 Q2036.22 99.5094 2037.28 101.733 Q2039.31 106.031 2039.31 113.59 Q2039.31 120.977 2037.43 125.003 Q2034.69 130.883 2028.64 130.883 Q2026.36 130.883 2024.04 129.722 Q2021.75 128.561 2020.29 125.769 Q2018.02 121.594 2018.02 113.59 M2022.21 112.973 Q2022.21 120.606 2022.76 123.645 Q2023.38 126.93 2025.06 128.363 Q2026.76 129.771 2028.64 129.771 Q2030.66 129.771 2032.34 128.264 Q2034.05 126.733 2034.57 123.447 Q2035.13 120.211 2035.11 112.973 Q2035.11 105.932 2034.62 103.116 Q2033.95 99.8306 2032.17 98.5213 Q2030.42 97.1873 2028.64 97.1873 Q2027.97 97.1873 2027.25 97.3849 Q2026.56 97.5826 2025.55 98.1507 Q2024.54 98.7189 2023.75 100.127 Q2022.98 101.535 2022.61 103.66 Q2022.21 106.402 2022.21 112.973 Z" fill="#000000" fill-rule="evenodd" fill-opacity="1" /><path clip-path="url(#clip630)" d="M2046.4 128.956 Q2045.63 128.141 2045.63 127.078 Q2045.63 126.016 2046.4 125.25 Q2047.17 124.46 2048.33 124.46 Q2049.44 124.46 2050.18 125.201 Q2050.94 125.917 2050.94 127.103 Q2050.94 128.264 2050.13 129.03 Q2049.34 129.771 2048.33 129.771 Q2047.17 129.771 2046.4 128.956 Z" fill="#000000" fill-rule="evenodd" fill-opacity="1" /><path clip-path="url(#clip630)" d="M2059.89 100.893 L2059.89 99.3118 Q2065.96 99.3118 2069.1 96.0757 Q2069.97 96.0757 2070.11 96.2733 Q2070.26 96.4709 2070.26 97.3849 L2070.26 125.769 Q2070.26 127.276 2071 127.745 Q2071.74 128.215 2074.98 128.215 L2076.59 128.215 L2076.59 129.771 Q2074.81 129.623 2068.39 129.623 Q2061.96 129.623 2060.21 129.771 L2060.21 128.215 L2061.81 128.215 Q2065 128.215 2065.77 127.77 Q2066.53 127.301 2066.53 125.769 L2066.53 99.5588 Q2063.89 100.893 2059.89 100.893 Z" fill="#000000" fill-rule="evenodd" fill-opacity="1" /><path clip-path="url(#clip630)" d="M2083.21 121.619 Q2083.21 120.112 2084.02 119.544 Q2084.84 118.951 2085.7 118.951 Q2086.86 118.951 2087.53 119.692 Q2088.22 120.408 2088.22 121.421 Q2088.22 122.434 2087.53 123.175 Q2086.86 123.892 2085.7 123.892 Q2085.13 123.892 2084.84 123.793 Q2085.5 126.115 2087.53 127.795 Q2089.58 129.475 2092.27 129.475 Q2095.66 129.475 2097.68 126.189 Q2098.89 124.065 2098.89 119.247 Q2098.89 114.998 2097.98 112.874 Q2096.57 109.638 2093.68 109.638 Q2089.58 109.638 2087.16 113.17 Q2086.86 113.615 2086.52 113.64 Q2086.02 113.64 2085.9 113.368 Q2085.8 113.072 2085.8 112.306 L2085.8 97.3355 Q2085.8 96.1251 2086.3 96.1251 Q2086.49 96.1251 2086.91 96.2733 Q2090.1 97.6814 2093.63 97.7061 Q2097.26 97.7061 2100.52 96.2239 Q2100.77 96.0757 2100.92 96.0757 Q2101.41 96.0757 2101.44 96.6438 Q2101.44 96.8415 2101.02 97.4343 Q2100.62 98.0025 2099.76 98.7683 Q2098.89 99.5094 2097.78 100.226 Q2096.67 100.942 2095.04 101.436 Q2093.43 101.906 2091.66 101.906 Q2089.53 101.906 2087.36 101.239 L2087.36 111.095 Q2089.98 108.526 2093.78 108.526 Q2097.83 108.526 2100.62 111.787 Q2103.41 115.048 2103.41 119.593 Q2103.41 124.361 2100.1 127.622 Q2096.82 130.883 2092.37 130.883 Q2088.32 130.883 2085.75 127.992 Q2083.21 125.102 2083.21 121.619 Z" fill="#000000" fill-rule="evenodd" fill-opacity="1" /><path clip-path="url(#clip630)" d="M2107.96 113.59 Q2107.96 106.155 2109.84 102.103 Q2112.46 96.0757 2118.63 96.0757 Q2119.94 96.0757 2121.3 96.4462 Q2122.68 96.7921 2124.41 98.1507 Q2126.17 99.5094 2127.23 101.733 Q2129.25 106.031 2129.25 113.59 Q2129.25 120.977 2127.38 125.003 Q2124.63 130.883 2118.58 130.883 Q2116.31 130.883 2113.99 129.722 Q2111.69 128.561 2110.23 125.769 Q2107.96 121.594 2107.96 113.59 M2112.16 112.973 Q2112.16 120.606 2112.7 123.645 Q2113.32 126.93 2115 128.363 Q2116.71 129.771 2118.58 129.771 Q2120.61 129.771 2122.29 128.264 Q2123.99 126.733 2124.51 123.447 Q2125.08 120.211 2125.05 112.973 Q2125.05 105.932 2124.56 103.116 Q2123.89 99.8306 2122.12 98.5213 Q2120.36 97.1873 2118.58 97.1873 Q2117.92 97.1873 2117.2 97.3849 Q2116.51 97.5826 2115.49 98.1507 Q2114.48 98.7189 2113.69 100.127 Q2112.93 101.535 2112.55 103.66 Q2112.16 106.402 2112.16 112.973 Z" fill="#000000" fill-rule="evenodd" fill-opacity="1" /><polyline clip-path="url(#clip630)" style="stroke:#000000; stroke-linecap:butt; stroke-linejoin:round; stroke-width:4; stroke-opacity:1; fill:none" points="
  1982.02,1486.45 1982.02,1258.06 2006.02,1258.06 1982.02,1258.06 1982.02,1029.67 2006.02,1029.67 1982.02,1029.67 1982.02,801.284 2006.02,801.284 1982.02,801.284 
  1982.02,572.896 2006.02,572.896 1982.02,572.896 1982.02,344.508 2006.02,344.508 1982.02,344.508 1982.02,116.12 2006.02,116.12 1982.02,116.12 1982.02,47.2441 
  
  "/>
</svg>
